%TF.GenerationSoftware,Altium Limited,Altium Designer,24.6.1 (21)*%
G04 Layer_Color=16711935*
%FSLAX44Y44*%
%MOMM*%
%TF.SameCoordinates,BF409B1A-1CF9-43DC-8BE1-D3214C2D7C54*%
%TF.FilePolarity,Positive*%
%TF.FileFunction,Other,Top_Assembly*%
%TF.Part,Single*%
G01*
G75*
%TA.AperFunction,NonConductor*%
%ADD39C,0.2000*%
G36*
X885322Y468893D02*
X885391D01*
X885556Y468873D01*
X885751Y468844D01*
X885966Y468805D01*
X886181Y468746D01*
X886385Y468669D01*
X886395D01*
X886405Y468659D01*
X886434Y468649D01*
X886473Y468629D01*
X886571Y468571D01*
X886698Y468503D01*
X886834Y468405D01*
X886971Y468288D01*
X887107Y468152D01*
X887224Y467995D01*
X887234Y467976D01*
X887273Y467918D01*
X887322Y467820D01*
X887371Y467703D01*
X887429Y467557D01*
X887488Y467381D01*
X887527Y467196D01*
X887546Y466991D01*
X886737Y466932D01*
Y466942D01*
Y466962D01*
X886727Y466991D01*
X886717Y467030D01*
X886698Y467137D01*
X886659Y467274D01*
X886600Y467420D01*
X886522Y467566D01*
X886415Y467713D01*
X886288Y467839D01*
X886268Y467849D01*
X886220Y467888D01*
X886132Y467937D01*
X886015Y467995D01*
X885859Y468054D01*
X885664Y468103D01*
X885439Y468142D01*
X885176Y468152D01*
X885049D01*
X884991Y468142D01*
X884913D01*
X884747Y468112D01*
X884562Y468083D01*
X884376Y468035D01*
X884201Y467966D01*
X884123Y467918D01*
X884054Y467869D01*
X884045Y467859D01*
X884006Y467820D01*
X883947Y467761D01*
X883889Y467674D01*
X883820Y467576D01*
X883772Y467459D01*
X883733Y467332D01*
X883713Y467186D01*
Y467166D01*
Y467127D01*
X883723Y467059D01*
X883742Y466981D01*
X883772Y466893D01*
X883820Y466796D01*
X883879Y466708D01*
X883957Y466620D01*
X883967Y466610D01*
X884015Y466581D01*
X884045Y466562D01*
X884084Y466532D01*
X884142Y466513D01*
X884210Y466484D01*
X884288Y466445D01*
X884376Y466406D01*
X884474Y466376D01*
X884591Y466337D01*
X884727Y466289D01*
X884874Y466250D01*
X885040Y466211D01*
X885225Y466162D01*
X885235D01*
X885274Y466152D01*
X885322Y466142D01*
X885391Y466123D01*
X885478Y466103D01*
X885576Y466074D01*
X885790Y466025D01*
X886025Y465957D01*
X886259Y465889D01*
X886376Y465859D01*
X886473Y465820D01*
X886571Y465781D01*
X886649Y465752D01*
X886659D01*
X886678Y465742D01*
X886698Y465723D01*
X886737Y465703D01*
X886834Y465645D01*
X886961Y465577D01*
X887097Y465479D01*
X887234Y465362D01*
X887361Y465235D01*
X887468Y465099D01*
X887478Y465079D01*
X887507Y465030D01*
X887556Y464952D01*
X887605Y464835D01*
X887654Y464709D01*
X887702Y464552D01*
X887731Y464377D01*
X887741Y464192D01*
Y464182D01*
Y464172D01*
Y464143D01*
Y464104D01*
X887722Y464006D01*
X887702Y463880D01*
X887673Y463733D01*
X887615Y463567D01*
X887546Y463392D01*
X887449Y463226D01*
X887439Y463206D01*
X887390Y463148D01*
X887332Y463070D01*
X887234Y462972D01*
X887117Y462855D01*
X886971Y462738D01*
X886795Y462631D01*
X886600Y462524D01*
X886590D01*
X886571Y462514D01*
X886542Y462504D01*
X886503Y462485D01*
X886454Y462465D01*
X886395Y462446D01*
X886239Y462407D01*
X886064Y462358D01*
X885849Y462319D01*
X885625Y462290D01*
X885371Y462280D01*
X885225D01*
X885156Y462290D01*
X885069D01*
X884971Y462299D01*
X884864Y462309D01*
X884640Y462338D01*
X884396Y462387D01*
X884152Y462446D01*
X883918Y462524D01*
X883908D01*
X883889Y462533D01*
X883859Y462553D01*
X883820Y462573D01*
X883713Y462631D01*
X883586Y462719D01*
X883430Y462826D01*
X883284Y462953D01*
X883128Y463109D01*
X882991Y463284D01*
Y463294D01*
X882981Y463304D01*
X882962Y463333D01*
X882943Y463372D01*
X882913Y463421D01*
X882884Y463480D01*
X882825Y463626D01*
X882767Y463792D01*
X882708Y463997D01*
X882669Y464211D01*
X882650Y464445D01*
X883450Y464513D01*
Y464504D01*
Y464494D01*
X883459Y464435D01*
X883479Y464348D01*
X883498Y464231D01*
X883538Y464104D01*
X883577Y463967D01*
X883635Y463840D01*
X883703Y463714D01*
X883713Y463704D01*
X883742Y463665D01*
X883791Y463606D01*
X883869Y463538D01*
X883957Y463460D01*
X884064Y463372D01*
X884201Y463294D01*
X884347Y463216D01*
X884357D01*
X884367Y463206D01*
X884425Y463187D01*
X884513Y463158D01*
X884640Y463128D01*
X884776Y463089D01*
X884952Y463060D01*
X885137Y463041D01*
X885332Y463031D01*
X885410D01*
X885508Y463041D01*
X885615Y463050D01*
X885751Y463060D01*
X885888Y463089D01*
X886034Y463119D01*
X886181Y463167D01*
X886200Y463177D01*
X886239Y463197D01*
X886308Y463226D01*
X886385Y463275D01*
X886483Y463333D01*
X886571Y463401D01*
X886659Y463480D01*
X886737Y463567D01*
X886746Y463577D01*
X886766Y463616D01*
X886795Y463665D01*
X886834Y463733D01*
X886863Y463811D01*
X886893Y463909D01*
X886912Y464006D01*
X886922Y464114D01*
Y464123D01*
Y464162D01*
X886912Y464221D01*
X886902Y464289D01*
X886883Y464377D01*
X886844Y464465D01*
X886805Y464552D01*
X886746Y464640D01*
X886737Y464650D01*
X886717Y464679D01*
X886668Y464718D01*
X886610Y464777D01*
X886532Y464835D01*
X886434Y464894D01*
X886308Y464962D01*
X886171Y465021D01*
X886161Y465030D01*
X886122Y465040D01*
X886044Y465060D01*
X885995Y465079D01*
X885937Y465099D01*
X885859Y465118D01*
X885781Y465138D01*
X885683Y465167D01*
X885586Y465196D01*
X885469Y465225D01*
X885332Y465255D01*
X885186Y465294D01*
X885030Y465333D01*
X885020D01*
X884991Y465342D01*
X884942Y465352D01*
X884883Y465372D01*
X884815Y465391D01*
X884737Y465411D01*
X884552Y465460D01*
X884347Y465528D01*
X884142Y465596D01*
X883957Y465664D01*
X883869Y465694D01*
X883801Y465733D01*
X883791D01*
X883781Y465742D01*
X883723Y465781D01*
X883645Y465830D01*
X883547Y465899D01*
X883430Y465986D01*
X883323Y466084D01*
X883216Y466201D01*
X883118Y466328D01*
X883108Y466347D01*
X883079Y466396D01*
X883050Y466464D01*
X883011Y466562D01*
X882962Y466679D01*
X882933Y466815D01*
X882904Y466971D01*
X882894Y467127D01*
Y467137D01*
Y467147D01*
Y467176D01*
Y467215D01*
X882913Y467303D01*
X882933Y467420D01*
X882962Y467566D01*
X883011Y467713D01*
X883079Y467878D01*
X883167Y468035D01*
Y468044D01*
X883177Y468054D01*
X883216Y468103D01*
X883284Y468181D01*
X883372Y468278D01*
X883479Y468376D01*
X883615Y468483D01*
X883781Y468591D01*
X883967Y468678D01*
X883976D01*
X883986Y468688D01*
X884015Y468698D01*
X884064Y468717D01*
X884113Y468727D01*
X884171Y468746D01*
X884308Y468795D01*
X884483Y468834D01*
X884679Y468864D01*
X884903Y468893D01*
X885137Y468903D01*
X885254D01*
X885322Y468893D01*
D02*
G37*
G36*
X894803Y462387D02*
X893974D01*
X892628Y467264D01*
Y467274D01*
X892618Y467293D01*
X892608Y467323D01*
X892598Y467361D01*
X892569Y467469D01*
X892540Y467586D01*
X892501Y467722D01*
X892472Y467839D01*
X892442Y467947D01*
X892433Y467986D01*
X892423Y468015D01*
Y467995D01*
X892403Y467947D01*
X892384Y467859D01*
X892355Y467761D01*
X892325Y467635D01*
X892296Y467518D01*
X892257Y467391D01*
X892228Y467264D01*
X890882Y462387D01*
X889994D01*
X888317Y468795D01*
X889185D01*
X890150Y464582D01*
Y464572D01*
X890160Y464552D01*
X890170Y464513D01*
X890180Y464474D01*
X890189Y464406D01*
X890209Y464338D01*
X890248Y464172D01*
X890287Y463977D01*
X890336Y463753D01*
X890375Y463519D01*
X890424Y463275D01*
Y463284D01*
X890433Y463324D01*
X890443Y463372D01*
X890462Y463441D01*
X890482Y463519D01*
X890501Y463606D01*
X890560Y463811D01*
X890609Y464016D01*
X890658Y464211D01*
X890677Y464289D01*
X890697Y464367D01*
X890706Y464426D01*
X890716Y464465D01*
X891935Y468795D01*
X892959D01*
X893876Y465547D01*
Y465538D01*
X893896Y465489D01*
X893905Y465430D01*
X893935Y465342D01*
X893954Y465235D01*
X893993Y465108D01*
X894023Y464962D01*
X894062Y464806D01*
X894101Y464640D01*
X894140Y464465D01*
X894227Y464075D01*
X894305Y463675D01*
X894374Y463275D01*
Y463284D01*
X894383Y463304D01*
Y463333D01*
X894393Y463382D01*
X894413Y463441D01*
X894423Y463509D01*
X894442Y463587D01*
X894462Y463675D01*
X894510Y463880D01*
X894559Y464123D01*
X894627Y464387D01*
X894696Y464669D01*
X895690Y468795D01*
X896549D01*
X894803Y462387D01*
D02*
G37*
G36*
X899992D02*
X899202D01*
Y467401D01*
X899192Y467391D01*
X899153Y467352D01*
X899085Y467303D01*
X898997Y467235D01*
X898890Y467147D01*
X898763Y467059D01*
X898616Y466952D01*
X898451Y466854D01*
X898441D01*
X898431Y466845D01*
X898373Y466805D01*
X898285Y466757D01*
X898178Y466698D01*
X898051Y466630D01*
X897914Y466572D01*
X897768Y466503D01*
X897631Y466445D01*
Y467215D01*
X897641D01*
X897661Y467225D01*
X897700Y467244D01*
X897739Y467274D01*
X897797Y467303D01*
X897866Y467332D01*
X898021Y467420D01*
X898197Y467527D01*
X898392Y467654D01*
X898587Y467800D01*
X898773Y467957D01*
X898782Y467966D01*
X898792Y467976D01*
X898851Y468035D01*
X898938Y468122D01*
X899046Y468230D01*
X899163Y468366D01*
X899280Y468512D01*
X899387Y468669D01*
X899475Y468825D01*
X899992D01*
Y462387D01*
D02*
G37*
G36*
X808397Y455063D02*
X808475Y455053D01*
X808553Y455043D01*
X808651Y455024D01*
X808748Y454995D01*
X808973Y454926D01*
X809099Y454878D01*
X809216Y454809D01*
X809333Y454741D01*
X809451Y454663D01*
X809568Y454566D01*
X809685Y454458D01*
X809694Y454449D01*
X809714Y454429D01*
X809733Y454400D01*
X809772Y454351D01*
X809821Y454292D01*
X809870Y454215D01*
X809919Y454127D01*
X809967Y454039D01*
X810026Y453932D01*
X810075Y453815D01*
X810124Y453688D01*
X810172Y453551D01*
X810211Y453405D01*
X810231Y453249D01*
X810250Y453083D01*
X810260Y452917D01*
Y452839D01*
X810250Y452781D01*
X810241Y452703D01*
X810231Y452625D01*
X810221Y452527D01*
X810202Y452430D01*
X810143Y452205D01*
X810045Y451971D01*
X809997Y451854D01*
X809929Y451747D01*
X809850Y451630D01*
X809763Y451522D01*
X809753Y451513D01*
X809743Y451503D01*
X809714Y451474D01*
X809675Y451435D01*
X809616Y451396D01*
X809558Y451347D01*
X809490Y451288D01*
X809411Y451240D01*
X809216Y451123D01*
X808992Y451025D01*
X808738Y450937D01*
X808602Y450908D01*
X808456Y450888D01*
X808348Y451679D01*
X808358D01*
X808378Y451688D01*
X808417D01*
X808456Y451708D01*
X808573Y451737D01*
X808719Y451786D01*
X808875Y451844D01*
X809041Y451922D01*
X809187Y452020D01*
X809314Y452127D01*
X809324Y452147D01*
X809363Y452186D01*
X809402Y452254D01*
X809460Y452351D01*
X809509Y452459D01*
X809558Y452595D01*
X809597Y452751D01*
X809607Y452917D01*
Y452976D01*
X809597Y453015D01*
X809587Y453112D01*
X809558Y453239D01*
X809509Y453395D01*
X809451Y453551D01*
X809353Y453707D01*
X809226Y453854D01*
X809207Y453873D01*
X809158Y453912D01*
X809080Y453971D01*
X808963Y454049D01*
X808826Y454117D01*
X808661Y454175D01*
X808475Y454215D01*
X808270Y454234D01*
X808261D01*
X808251D01*
X808222D01*
X808183Y454224D01*
X808085Y454215D01*
X807958Y454185D01*
X807822Y454146D01*
X807666Y454078D01*
X807519Y453990D01*
X807383Y453873D01*
X807363Y453854D01*
X807324Y453815D01*
X807275Y453736D01*
X807207Y453629D01*
X807139Y453502D01*
X807090Y453346D01*
X807051Y453181D01*
X807032Y452985D01*
Y452898D01*
X807041Y452829D01*
X807051Y452751D01*
X807061Y452654D01*
X807080Y452547D01*
X807110Y452430D01*
X806417Y452517D01*
Y452566D01*
X806427Y452605D01*
Y452732D01*
X806417Y452820D01*
X806398Y452947D01*
X806368Y453083D01*
X806320Y453229D01*
X806261Y453385D01*
X806173Y453541D01*
X806164Y453561D01*
X806124Y453610D01*
X806056Y453668D01*
X805968Y453746D01*
X805861Y453824D01*
X805725Y453883D01*
X805559Y453932D01*
X805364Y453951D01*
X805354D01*
X805344D01*
X805295D01*
X805218Y453932D01*
X805110Y453912D01*
X805003Y453883D01*
X804886Y453824D01*
X804759Y453756D01*
X804652Y453658D01*
X804642Y453649D01*
X804603Y453610D01*
X804554Y453541D01*
X804505Y453454D01*
X804447Y453346D01*
X804408Y453220D01*
X804369Y453073D01*
X804359Y452907D01*
Y452829D01*
X804379Y452742D01*
X804398Y452644D01*
X804427Y452517D01*
X804486Y452391D01*
X804554Y452264D01*
X804652Y452137D01*
X804661Y452127D01*
X804700Y452088D01*
X804769Y452039D01*
X804866Y451981D01*
X804983Y451913D01*
X805130Y451854D01*
X805305Y451796D01*
X805510Y451757D01*
X805374Y450966D01*
X805364D01*
X805334Y450976D01*
X805295Y450986D01*
X805247Y450996D01*
X805179Y451015D01*
X805100Y451035D01*
X804925Y451103D01*
X804730Y451181D01*
X804525Y451298D01*
X804330Y451435D01*
X804154Y451610D01*
X804145Y451620D01*
X804135Y451630D01*
X804115Y451659D01*
X804086Y451708D01*
X804057Y451757D01*
X804018Y451815D01*
X803930Y451961D01*
X803852Y452147D01*
X803784Y452371D01*
X803735Y452615D01*
X803715Y452751D01*
Y452976D01*
X803725Y453073D01*
X803745Y453200D01*
X803774Y453346D01*
X803813Y453512D01*
X803872Y453678D01*
X803950Y453844D01*
Y453854D01*
X803959Y453863D01*
X803988Y453922D01*
X804037Y454000D01*
X804106Y454097D01*
X804193Y454205D01*
X804301Y454322D01*
X804427Y454429D01*
X804564Y454527D01*
X804584Y454536D01*
X804632Y454566D01*
X804710Y454605D01*
X804808Y454644D01*
X804935Y454683D01*
X805071Y454722D01*
X805218Y454751D01*
X805383Y454761D01*
X805403D01*
X805452D01*
X805530Y454751D01*
X805627Y454731D01*
X805744Y454702D01*
X805871Y454663D01*
X806008Y454614D01*
X806134Y454536D01*
X806154Y454527D01*
X806193Y454497D01*
X806251Y454439D01*
X806329Y454370D01*
X806417Y454273D01*
X806505Y454166D01*
X806602Y454029D01*
X806681Y453873D01*
Y453883D01*
X806690Y453902D01*
Y453932D01*
X806710Y453971D01*
X806739Y454068D01*
X806797Y454195D01*
X806866Y454332D01*
X806963Y454478D01*
X807080Y454624D01*
X807227Y454751D01*
X807246Y454761D01*
X807305Y454800D01*
X807393Y454848D01*
X807510Y454917D01*
X807656Y454975D01*
X807831Y455024D01*
X808036Y455063D01*
X808261Y455073D01*
X808270D01*
X808300D01*
X808339D01*
X808397Y455063D01*
D02*
G37*
G36*
X808173Y450147D02*
X808222Y450128D01*
X808300Y450108D01*
X808378Y450069D01*
X808485Y450030D01*
X808592Y449991D01*
X808709Y449933D01*
X808973Y449806D01*
X809236Y449630D01*
X809490Y449435D01*
X809607Y449318D01*
X809714Y449191D01*
X809724Y449182D01*
X809733Y449162D01*
X809763Y449123D01*
X809802Y449065D01*
X809841Y448996D01*
X809889Y448918D01*
X809938Y448830D01*
X809987Y448723D01*
X810036Y448606D01*
X810085Y448479D01*
X810133Y448333D01*
X810172Y448187D01*
X810241Y447865D01*
X810250Y447689D01*
X810260Y447504D01*
Y447406D01*
X810250Y447328D01*
Y447241D01*
X810241Y447143D01*
X810221Y447026D01*
X810211Y446909D01*
X810153Y446636D01*
X810085Y446353D01*
X809977Y446080D01*
X809919Y445943D01*
X809841Y445817D01*
X809831Y445807D01*
X809821Y445787D01*
X809792Y445758D01*
X809763Y445709D01*
X809665Y445592D01*
X809529Y445456D01*
X809363Y445290D01*
X809148Y445134D01*
X808904Y444968D01*
X808622Y444832D01*
X808612D01*
X808583Y444822D01*
X808543Y444802D01*
X808485Y444783D01*
X808407Y444753D01*
X808319Y444724D01*
X808222Y444695D01*
X808104Y444666D01*
X807988Y444636D01*
X807851Y444607D01*
X807558Y444549D01*
X807246Y444510D01*
X806905Y444500D01*
X806895D01*
X806856D01*
X806807D01*
X806739Y444510D01*
X806651D01*
X806544Y444519D01*
X806437Y444529D01*
X806310Y444549D01*
X806037Y444597D01*
X805744Y444656D01*
X805442Y444753D01*
X805159Y444880D01*
X805149D01*
X805130Y444900D01*
X805091Y444919D01*
X805032Y444949D01*
X804974Y444988D01*
X804905Y445036D01*
X804740Y445163D01*
X804554Y445309D01*
X804369Y445495D01*
X804184Y445719D01*
X804027Y445963D01*
Y445973D01*
X804008Y445992D01*
X803988Y446031D01*
X803969Y446090D01*
X803940Y446148D01*
X803901Y446226D01*
X803872Y446324D01*
X803832Y446421D01*
X803793Y446529D01*
X803764Y446646D01*
X803696Y446909D01*
X803657Y447202D01*
X803637Y447514D01*
Y447611D01*
X803647Y447679D01*
X803657Y447758D01*
X803667Y447855D01*
X803676Y447962D01*
X803696Y448079D01*
X803754Y448333D01*
X803842Y448606D01*
X803901Y448743D01*
X803969Y448879D01*
X804047Y449006D01*
X804135Y449133D01*
X804145Y449143D01*
X804154Y449162D01*
X804184Y449191D01*
X804223Y449240D01*
X804271Y449289D01*
X804340Y449357D01*
X804408Y449425D01*
X804486Y449494D01*
X804584Y449572D01*
X804681Y449640D01*
X804798Y449718D01*
X804925Y449796D01*
X805052Y449864D01*
X805198Y449933D01*
X805510Y450050D01*
X805705Y449211D01*
X805695D01*
X805676Y449201D01*
X805637Y449191D01*
X805588Y449172D01*
X805530Y449143D01*
X805461Y449113D01*
X805315Y449045D01*
X805149Y448957D01*
X804974Y448840D01*
X804818Y448713D01*
X804681Y448557D01*
X804671Y448538D01*
X804632Y448479D01*
X804584Y448392D01*
X804515Y448265D01*
X804457Y448119D01*
X804408Y447933D01*
X804369Y447728D01*
X804359Y447494D01*
Y447426D01*
X804369Y447377D01*
Y447309D01*
X804379Y447241D01*
X804408Y447065D01*
X804447Y446870D01*
X804515Y446665D01*
X804603Y446460D01*
X804720Y446265D01*
Y446255D01*
X804740Y446246D01*
X804788Y446187D01*
X804866Y446100D01*
X804974Y445992D01*
X805110Y445885D01*
X805266Y445768D01*
X805461Y445661D01*
X805676Y445573D01*
X805686D01*
X805705Y445563D01*
X805734Y445553D01*
X805783Y445544D01*
X805832Y445524D01*
X805900Y445514D01*
X806056Y445475D01*
X806242Y445436D01*
X806446Y445407D01*
X806671Y445387D01*
X806905Y445378D01*
X806915D01*
X806944D01*
X806983D01*
X807041D01*
X807110Y445387D01*
X807197D01*
X807285Y445397D01*
X807383Y445407D01*
X807607Y445436D01*
X807851Y445475D01*
X808095Y445534D01*
X808329Y445612D01*
X808339D01*
X808358Y445621D01*
X808387Y445641D01*
X808426Y445661D01*
X808543Y445709D01*
X808670Y445787D01*
X808826Y445895D01*
X808973Y446021D01*
X809119Y446168D01*
X809246Y446343D01*
Y446353D01*
X809256Y446363D01*
X809275Y446392D01*
X809295Y446431D01*
X809333Y446538D01*
X809392Y446675D01*
X809441Y446831D01*
X809490Y447016D01*
X809529Y447221D01*
X809538Y447436D01*
Y447504D01*
X809529Y447553D01*
Y447611D01*
X809519Y447689D01*
X809490Y447855D01*
X809441Y448040D01*
X809363Y448245D01*
X809265Y448440D01*
X809129Y448635D01*
X809119Y448645D01*
X809109Y448655D01*
X809051Y448713D01*
X808953Y448801D01*
X808826Y448909D01*
X808651Y449016D01*
X808446Y449133D01*
X808192Y449230D01*
X807909Y449308D01*
X808124Y450157D01*
X808134D01*
X808173Y450147D01*
D02*
G37*
G36*
X861655Y813423D02*
X856642D01*
X856652Y813414D01*
X856691Y813374D01*
X856739Y813306D01*
X856808Y813219D01*
X856895Y813111D01*
X856983Y812984D01*
X857090Y812838D01*
X857188Y812672D01*
Y812663D01*
X857198Y812653D01*
X857237Y812594D01*
X857286Y812506D01*
X857344Y812399D01*
X857412Y812272D01*
X857471Y812136D01*
X857539Y811990D01*
X857598Y811853D01*
X856827D01*
Y811863D01*
X856817Y811882D01*
X856798Y811921D01*
X856768Y811960D01*
X856739Y812019D01*
X856710Y812087D01*
X856622Y812243D01*
X856515Y812419D01*
X856388Y812614D01*
X856242Y812809D01*
X856086Y812994D01*
X856076Y813004D01*
X856066Y813014D01*
X856008Y813072D01*
X855920Y813160D01*
X855813Y813267D01*
X855676Y813384D01*
X855530Y813501D01*
X855374Y813609D01*
X855218Y813696D01*
Y814213D01*
X861655D01*
Y813423D01*
D02*
G37*
G36*
X855998Y808586D02*
X861655D01*
Y807737D01*
X855998D01*
Y805630D01*
X855247D01*
Y810692D01*
X855998D01*
Y808586D01*
D02*
G37*
G36*
X859968Y804928D02*
X860075Y804918D01*
X860202Y804889D01*
X860348Y804860D01*
X860494Y804811D01*
X860641Y804743D01*
X860660Y804733D01*
X860709Y804713D01*
X860777Y804665D01*
X860865Y804616D01*
X860963Y804548D01*
X861060Y804470D01*
X861158Y804372D01*
X861245Y804274D01*
X861255Y804265D01*
X861275Y804226D01*
X861314Y804167D01*
X861363Y804079D01*
X861411Y803982D01*
X861460Y803855D01*
X861509Y803718D01*
X861558Y803572D01*
Y803553D01*
X861577Y803494D01*
X861587Y803406D01*
X861606Y803289D01*
X861626Y803133D01*
X861636Y802958D01*
X861655Y802763D01*
Y800100D01*
X855247D01*
Y802616D01*
X855257Y802685D01*
Y802753D01*
X855266Y802919D01*
X855296Y803104D01*
X855325Y803299D01*
X855374Y803494D01*
X855442Y803670D01*
Y803680D01*
X855452Y803689D01*
X855481Y803748D01*
X855530Y803826D01*
X855588Y803923D01*
X855676Y804040D01*
X855783Y804157D01*
X855900Y804265D01*
X856047Y804372D01*
X856066Y804382D01*
X856115Y804411D01*
X856203Y804450D01*
X856310Y804499D01*
X856437Y804548D01*
X856573Y804587D01*
X856730Y804616D01*
X856895Y804626D01*
X856915D01*
X856964D01*
X857042Y804616D01*
X857149Y804596D01*
X857266Y804567D01*
X857393Y804528D01*
X857539Y804479D01*
X857676Y804401D01*
X857695Y804391D01*
X857734Y804362D01*
X857802Y804304D01*
X857880Y804235D01*
X857978Y804138D01*
X858066Y804021D01*
X858163Y803884D01*
X858251Y803718D01*
Y803728D01*
X858261Y803748D01*
X858271Y803777D01*
X858280Y803816D01*
X858329Y803923D01*
X858388Y804050D01*
X858475Y804196D01*
X858573Y804343D01*
X858690Y804489D01*
X858836Y804616D01*
X858856Y804626D01*
X858905Y804665D01*
X858992Y804713D01*
X859109Y804782D01*
X859256Y804840D01*
X859412Y804889D01*
X859597Y804928D01*
X859802Y804938D01*
X859821D01*
X859880D01*
X859968Y804928D01*
D02*
G37*
G36*
X472823Y1111240D02*
X472911D01*
X473008Y1111231D01*
X473116Y1111221D01*
X473340Y1111192D01*
X473584Y1111143D01*
X473828Y1111084D01*
X474062Y1111006D01*
X474071D01*
X474091Y1110996D01*
X474120Y1110977D01*
X474159Y1110957D01*
X474266Y1110899D01*
X474393Y1110811D01*
X474549Y1110704D01*
X474696Y1110577D01*
X474852Y1110421D01*
X474988Y1110246D01*
Y1110236D01*
X474998Y1110226D01*
X475018Y1110197D01*
X475037Y1110158D01*
X475066Y1110109D01*
X475095Y1110050D01*
X475154Y1109904D01*
X475213Y1109738D01*
X475271Y1109533D01*
X475310Y1109319D01*
X475330Y1109085D01*
X474530Y1109016D01*
Y1109026D01*
Y1109036D01*
X474520Y1109094D01*
X474501Y1109182D01*
X474481Y1109299D01*
X474442Y1109426D01*
X474403Y1109563D01*
X474344Y1109689D01*
X474276Y1109816D01*
X474266Y1109826D01*
X474237Y1109865D01*
X474188Y1109924D01*
X474110Y1109992D01*
X474023Y1110070D01*
X473915Y1110158D01*
X473779Y1110236D01*
X473633Y1110314D01*
X473623D01*
X473613Y1110323D01*
X473554Y1110343D01*
X473467Y1110372D01*
X473340Y1110402D01*
X473203Y1110441D01*
X473028Y1110470D01*
X472842Y1110489D01*
X472647Y1110499D01*
X472569D01*
X472472Y1110489D01*
X472365Y1110480D01*
X472228Y1110470D01*
X472091Y1110441D01*
X471945Y1110411D01*
X471799Y1110362D01*
X471779Y1110353D01*
X471740Y1110333D01*
X471672Y1110304D01*
X471594Y1110255D01*
X471496Y1110197D01*
X471409Y1110128D01*
X471321Y1110050D01*
X471243Y1109963D01*
X471233Y1109953D01*
X471214Y1109914D01*
X471184Y1109865D01*
X471145Y1109797D01*
X471116Y1109719D01*
X471087Y1109621D01*
X471067Y1109524D01*
X471058Y1109416D01*
Y1109407D01*
Y1109368D01*
X471067Y1109309D01*
X471077Y1109241D01*
X471096Y1109153D01*
X471135Y1109065D01*
X471175Y1108978D01*
X471233Y1108890D01*
X471243Y1108880D01*
X471262Y1108851D01*
X471311Y1108812D01*
X471370Y1108753D01*
X471448Y1108695D01*
X471545Y1108636D01*
X471672Y1108568D01*
X471809Y1108509D01*
X471818Y1108500D01*
X471857Y1108490D01*
X471935Y1108470D01*
X471984Y1108451D01*
X472043Y1108431D01*
X472121Y1108412D01*
X472199Y1108392D01*
X472296Y1108363D01*
X472394Y1108334D01*
X472511Y1108305D01*
X472647Y1108275D01*
X472794Y1108236D01*
X472950Y1108197D01*
X472960D01*
X472989Y1108187D01*
X473037Y1108178D01*
X473096Y1108158D01*
X473164Y1108139D01*
X473242Y1108119D01*
X473428Y1108070D01*
X473633Y1108002D01*
X473837Y1107934D01*
X474023Y1107866D01*
X474110Y1107836D01*
X474179Y1107797D01*
X474188D01*
X474198Y1107787D01*
X474257Y1107748D01*
X474335Y1107700D01*
X474432Y1107632D01*
X474549Y1107544D01*
X474657Y1107446D01*
X474764Y1107329D01*
X474861Y1107202D01*
X474871Y1107183D01*
X474900Y1107134D01*
X474930Y1107066D01*
X474969Y1106968D01*
X475018Y1106851D01*
X475047Y1106715D01*
X475076Y1106559D01*
X475086Y1106403D01*
Y1106393D01*
Y1106383D01*
Y1106354D01*
Y1106315D01*
X475066Y1106227D01*
X475047Y1106110D01*
X475018Y1105964D01*
X474969Y1105817D01*
X474900Y1105651D01*
X474813Y1105496D01*
Y1105486D01*
X474803Y1105476D01*
X474764Y1105427D01*
X474696Y1105349D01*
X474608Y1105252D01*
X474501Y1105154D01*
X474364Y1105047D01*
X474198Y1104939D01*
X474013Y1104852D01*
X474003D01*
X473993Y1104842D01*
X473964Y1104832D01*
X473915Y1104813D01*
X473867Y1104803D01*
X473808Y1104783D01*
X473671Y1104735D01*
X473496Y1104696D01*
X473301Y1104666D01*
X473077Y1104637D01*
X472842Y1104627D01*
X472725D01*
X472657Y1104637D01*
X472589D01*
X472423Y1104657D01*
X472228Y1104686D01*
X472013Y1104725D01*
X471799Y1104783D01*
X471594Y1104862D01*
X471584D01*
X471574Y1104871D01*
X471545Y1104881D01*
X471506Y1104901D01*
X471409Y1104959D01*
X471282Y1105027D01*
X471145Y1105125D01*
X471009Y1105242D01*
X470872Y1105378D01*
X470755Y1105535D01*
X470745Y1105554D01*
X470706Y1105612D01*
X470658Y1105710D01*
X470609Y1105827D01*
X470550Y1105973D01*
X470492Y1106149D01*
X470453Y1106334D01*
X470433Y1106539D01*
X471243Y1106598D01*
Y1106588D01*
Y1106568D01*
X471253Y1106539D01*
X471262Y1106500D01*
X471282Y1106393D01*
X471321Y1106256D01*
X471379Y1106110D01*
X471457Y1105964D01*
X471565Y1105817D01*
X471692Y1105691D01*
X471711Y1105681D01*
X471760Y1105642D01*
X471847Y1105593D01*
X471965Y1105535D01*
X472121Y1105476D01*
X472316Y1105427D01*
X472540Y1105388D01*
X472803Y1105378D01*
X472930D01*
X472989Y1105388D01*
X473067D01*
X473233Y1105417D01*
X473418Y1105447D01*
X473603Y1105496D01*
X473779Y1105564D01*
X473857Y1105612D01*
X473925Y1105661D01*
X473935Y1105671D01*
X473974Y1105710D01*
X474032Y1105769D01*
X474091Y1105856D01*
X474159Y1105954D01*
X474208Y1106071D01*
X474247Y1106198D01*
X474266Y1106344D01*
Y1106364D01*
Y1106403D01*
X474257Y1106471D01*
X474237Y1106549D01*
X474208Y1106637D01*
X474159Y1106734D01*
X474101Y1106822D01*
X474023Y1106910D01*
X474013Y1106919D01*
X473964Y1106949D01*
X473935Y1106968D01*
X473896Y1106998D01*
X473837Y1107017D01*
X473769Y1107046D01*
X473691Y1107085D01*
X473603Y1107124D01*
X473506Y1107154D01*
X473389Y1107193D01*
X473252Y1107241D01*
X473106Y1107280D01*
X472940Y1107319D01*
X472755Y1107368D01*
X472745D01*
X472706Y1107378D01*
X472657Y1107388D01*
X472589Y1107407D01*
X472501Y1107427D01*
X472403Y1107456D01*
X472189Y1107505D01*
X471955Y1107573D01*
X471721Y1107641D01*
X471604Y1107671D01*
X471506Y1107710D01*
X471409Y1107748D01*
X471331Y1107778D01*
X471321D01*
X471301Y1107787D01*
X471282Y1107807D01*
X471243Y1107827D01*
X471145Y1107885D01*
X471018Y1107953D01*
X470882Y1108051D01*
X470745Y1108168D01*
X470619Y1108295D01*
X470511Y1108431D01*
X470502Y1108451D01*
X470472Y1108500D01*
X470424Y1108578D01*
X470375Y1108695D01*
X470326Y1108821D01*
X470277Y1108978D01*
X470248Y1109153D01*
X470238Y1109338D01*
Y1109348D01*
Y1109358D01*
Y1109387D01*
Y1109426D01*
X470258Y1109524D01*
X470277Y1109650D01*
X470307Y1109797D01*
X470365Y1109963D01*
X470433Y1110138D01*
X470531Y1110304D01*
X470541Y1110323D01*
X470589Y1110382D01*
X470648Y1110460D01*
X470745Y1110558D01*
X470862Y1110675D01*
X471009Y1110792D01*
X471184Y1110899D01*
X471379Y1111006D01*
X471389D01*
X471409Y1111016D01*
X471438Y1111026D01*
X471477Y1111045D01*
X471526Y1111065D01*
X471584Y1111084D01*
X471740Y1111123D01*
X471916Y1111172D01*
X472130Y1111211D01*
X472355Y1111240D01*
X472608Y1111250D01*
X472755D01*
X472823Y1111240D01*
D02*
G37*
G36*
X480060Y1104735D02*
X479212D01*
Y1110392D01*
X476061D01*
Y1111143D01*
X480060D01*
Y1104735D01*
D02*
G37*
G36*
X467224Y1106129D02*
X467234Y1106139D01*
X467273Y1106178D01*
X467341Y1106227D01*
X467429Y1106295D01*
X467537Y1106383D01*
X467663Y1106471D01*
X467810Y1106578D01*
X467975Y1106676D01*
X467985D01*
X467995Y1106685D01*
X468053Y1106724D01*
X468141Y1106773D01*
X468248Y1106832D01*
X468375Y1106900D01*
X468512Y1106958D01*
X468658Y1107027D01*
X468795Y1107085D01*
Y1106315D01*
X468785D01*
X468765Y1106305D01*
X468726Y1106285D01*
X468687Y1106256D01*
X468629Y1106227D01*
X468561Y1106198D01*
X468405Y1106110D01*
X468229Y1106003D01*
X468034Y1105876D01*
X467839Y1105730D01*
X467654Y1105574D01*
X467644Y1105564D01*
X467634Y1105554D01*
X467575Y1105496D01*
X467488Y1105408D01*
X467380Y1105300D01*
X467263Y1105164D01*
X467146Y1105017D01*
X467039Y1104862D01*
X466951Y1104705D01*
X466434D01*
Y1111143D01*
X467224D01*
Y1106129D01*
D02*
G37*
G36*
X887420Y926433D02*
X887488Y926423D01*
X887576Y926413D01*
X887761Y926384D01*
X887966Y926325D01*
X888181Y926238D01*
X888288Y926189D01*
X888385Y926121D01*
X888483Y926052D01*
X888571Y925965D01*
Y925955D01*
X888590Y925945D01*
X888610Y925916D01*
X888639Y925877D01*
X888678Y925818D01*
X888707Y925760D01*
X888756Y925682D01*
X888795Y925604D01*
X888834Y925506D01*
X888873Y925399D01*
X888912Y925282D01*
X888941Y925145D01*
X888971Y925009D01*
X888990Y924853D01*
X889000Y924697D01*
Y924521D01*
X888239Y924414D01*
Y924423D01*
Y924443D01*
Y924482D01*
X888230Y924531D01*
Y924589D01*
X888220Y924658D01*
X888191Y924814D01*
X888161Y924989D01*
X888112Y925155D01*
X888044Y925301D01*
X888005Y925369D01*
X887966Y925428D01*
X887956Y925438D01*
X887917Y925467D01*
X887869Y925516D01*
X887791Y925555D01*
X887693Y925604D01*
X887576Y925652D01*
X887439Y925682D01*
X887283Y925691D01*
X887225D01*
X887166Y925682D01*
X887098Y925672D01*
X887010Y925652D01*
X886913Y925633D01*
X886825Y925594D01*
X886737Y925545D01*
X886727Y925535D01*
X886698Y925516D01*
X886659Y925487D01*
X886610Y925438D01*
X886552Y925389D01*
X886503Y925321D01*
X886454Y925243D01*
X886415Y925155D01*
Y925145D01*
X886396Y925106D01*
X886386Y925048D01*
X886367Y924960D01*
X886347Y924843D01*
X886337Y924706D01*
X886318Y924540D01*
Y924345D01*
Y919927D01*
X885469D01*
Y924297D01*
Y924306D01*
Y924336D01*
Y924375D01*
Y924433D01*
X885479Y924501D01*
Y924579D01*
X885489Y924755D01*
X885518Y924960D01*
X885547Y925165D01*
X885596Y925369D01*
X885664Y925545D01*
X885674Y925565D01*
X885703Y925613D01*
X885752Y925691D01*
X885811Y925789D01*
X885898Y925906D01*
X886006Y926013D01*
X886142Y926121D01*
X886289Y926218D01*
X886308Y926228D01*
X886367Y926257D01*
X886454Y926286D01*
X886571Y926325D01*
X886718Y926374D01*
X886883Y926403D01*
X887078Y926433D01*
X887283Y926442D01*
X887361D01*
X887420Y926433D01*
D02*
G37*
G36*
X882231Y921322D02*
X882241Y921332D01*
X882280Y921371D01*
X882348Y921419D01*
X882436Y921488D01*
X882543Y921575D01*
X882670Y921663D01*
X882816Y921770D01*
X882982Y921868D01*
X882992D01*
X883001Y921878D01*
X883060Y921917D01*
X883148Y921965D01*
X883255Y922024D01*
X883382Y922092D01*
X883519Y922151D01*
X883665Y922219D01*
X883801Y922278D01*
Y921507D01*
X883792D01*
X883772Y921497D01*
X883733Y921478D01*
X883694Y921449D01*
X883635Y921419D01*
X883567Y921390D01*
X883411Y921302D01*
X883236Y921195D01*
X883041Y921068D01*
X882846Y920922D01*
X882660Y920766D01*
X882650Y920756D01*
X882641Y920746D01*
X882582Y920688D01*
X882494Y920600D01*
X882387Y920493D01*
X882270Y920356D01*
X882153Y920210D01*
X882046Y920054D01*
X881958Y919898D01*
X881441D01*
Y926335D01*
X882231D01*
Y921322D01*
D02*
G37*
G36*
X1022482Y1008643D02*
X1022551D01*
X1022716Y1008623D01*
X1022912Y1008594D01*
X1023126Y1008555D01*
X1023341Y1008496D01*
X1023546Y1008419D01*
X1023555D01*
X1023565Y1008409D01*
X1023594Y1008399D01*
X1023633Y1008380D01*
X1023731Y1008321D01*
X1023858Y1008253D01*
X1023994Y1008155D01*
X1024131Y1008038D01*
X1024267Y1007902D01*
X1024384Y1007746D01*
X1024394Y1007726D01*
X1024433Y1007667D01*
X1024482Y1007570D01*
X1024531Y1007453D01*
X1024589Y1007307D01*
X1024648Y1007131D01*
X1024687Y1006946D01*
X1024706Y1006741D01*
X1023897Y1006682D01*
Y1006692D01*
Y1006712D01*
X1023887Y1006741D01*
X1023877Y1006780D01*
X1023858Y1006887D01*
X1023819Y1007024D01*
X1023760Y1007170D01*
X1023682Y1007316D01*
X1023575Y1007463D01*
X1023448Y1007589D01*
X1023428Y1007599D01*
X1023380Y1007638D01*
X1023292Y1007687D01*
X1023175Y1007746D01*
X1023019Y1007804D01*
X1022824Y1007853D01*
X1022599Y1007892D01*
X1022336Y1007902D01*
X1022209D01*
X1022151Y1007892D01*
X1022073D01*
X1021907Y1007862D01*
X1021722Y1007833D01*
X1021536Y1007785D01*
X1021361Y1007716D01*
X1021283Y1007667D01*
X1021214Y1007619D01*
X1021205Y1007609D01*
X1021166Y1007570D01*
X1021107Y1007511D01*
X1021049Y1007424D01*
X1020980Y1007326D01*
X1020931Y1007209D01*
X1020892Y1007082D01*
X1020873Y1006936D01*
Y1006916D01*
Y1006877D01*
X1020883Y1006809D01*
X1020902Y1006731D01*
X1020931Y1006643D01*
X1020980Y1006546D01*
X1021039Y1006458D01*
X1021117Y1006370D01*
X1021127Y1006360D01*
X1021175Y1006331D01*
X1021205Y1006312D01*
X1021244Y1006282D01*
X1021302Y1006263D01*
X1021370Y1006234D01*
X1021449Y1006195D01*
X1021536Y1006156D01*
X1021634Y1006126D01*
X1021751Y1006087D01*
X1021887Y1006039D01*
X1022034Y1006000D01*
X1022199Y1005961D01*
X1022385Y1005912D01*
X1022395D01*
X1022434Y1005902D01*
X1022482Y1005892D01*
X1022551Y1005873D01*
X1022638Y1005853D01*
X1022736Y1005824D01*
X1022951Y1005775D01*
X1023185Y1005707D01*
X1023419Y1005639D01*
X1023536Y1005609D01*
X1023633Y1005570D01*
X1023731Y1005531D01*
X1023809Y1005502D01*
X1023819D01*
X1023838Y1005492D01*
X1023858Y1005473D01*
X1023897Y1005453D01*
X1023994Y1005395D01*
X1024121Y1005327D01*
X1024258Y1005229D01*
X1024394Y1005112D01*
X1024521Y1004985D01*
X1024628Y1004849D01*
X1024638Y1004829D01*
X1024667Y1004780D01*
X1024716Y1004702D01*
X1024765Y1004585D01*
X1024814Y1004458D01*
X1024862Y1004303D01*
X1024892Y1004127D01*
X1024901Y1003942D01*
Y1003932D01*
Y1003922D01*
Y1003893D01*
Y1003854D01*
X1024882Y1003756D01*
X1024862Y1003630D01*
X1024833Y1003483D01*
X1024774Y1003317D01*
X1024706Y1003142D01*
X1024609Y1002976D01*
X1024599Y1002956D01*
X1024550Y1002898D01*
X1024492Y1002820D01*
X1024394Y1002722D01*
X1024277Y1002605D01*
X1024131Y1002488D01*
X1023955Y1002381D01*
X1023760Y1002274D01*
X1023750D01*
X1023731Y1002264D01*
X1023702Y1002254D01*
X1023662Y1002235D01*
X1023614Y1002215D01*
X1023555Y1002196D01*
X1023399Y1002157D01*
X1023224Y1002108D01*
X1023009Y1002069D01*
X1022785Y1002040D01*
X1022531Y1002030D01*
X1022385D01*
X1022317Y1002040D01*
X1022229D01*
X1022131Y1002049D01*
X1022024Y1002059D01*
X1021800Y1002088D01*
X1021556Y1002137D01*
X1021312Y1002196D01*
X1021078Y1002274D01*
X1021068D01*
X1021049Y1002283D01*
X1021019Y1002303D01*
X1020980Y1002322D01*
X1020873Y1002381D01*
X1020746Y1002469D01*
X1020590Y1002576D01*
X1020444Y1002703D01*
X1020288Y1002859D01*
X1020151Y1003035D01*
Y1003044D01*
X1020142Y1003054D01*
X1020122Y1003083D01*
X1020102Y1003122D01*
X1020073Y1003171D01*
X1020044Y1003230D01*
X1019985Y1003376D01*
X1019927Y1003542D01*
X1019868Y1003746D01*
X1019829Y1003961D01*
X1019810Y1004195D01*
X1020610Y1004263D01*
Y1004254D01*
Y1004244D01*
X1020619Y1004185D01*
X1020639Y1004098D01*
X1020658Y1003981D01*
X1020697Y1003854D01*
X1020736Y1003717D01*
X1020795Y1003590D01*
X1020863Y1003464D01*
X1020873Y1003454D01*
X1020902Y1003415D01*
X1020951Y1003356D01*
X1021029Y1003288D01*
X1021117Y1003210D01*
X1021224Y1003122D01*
X1021361Y1003044D01*
X1021507Y1002966D01*
X1021517D01*
X1021526Y1002956D01*
X1021585Y1002937D01*
X1021673Y1002908D01*
X1021800Y1002878D01*
X1021936Y1002839D01*
X1022112Y1002810D01*
X1022297Y1002791D01*
X1022492Y1002781D01*
X1022570D01*
X1022668Y1002791D01*
X1022775Y1002800D01*
X1022912Y1002810D01*
X1023048Y1002839D01*
X1023194Y1002869D01*
X1023341Y1002917D01*
X1023360Y1002927D01*
X1023399Y1002947D01*
X1023467Y1002976D01*
X1023546Y1003025D01*
X1023643Y1003083D01*
X1023731Y1003151D01*
X1023819Y1003230D01*
X1023897Y1003317D01*
X1023906Y1003327D01*
X1023926Y1003366D01*
X1023955Y1003415D01*
X1023994Y1003483D01*
X1024023Y1003561D01*
X1024053Y1003659D01*
X1024072Y1003756D01*
X1024082Y1003864D01*
Y1003873D01*
Y1003912D01*
X1024072Y1003971D01*
X1024062Y1004039D01*
X1024043Y1004127D01*
X1024004Y1004215D01*
X1023965Y1004303D01*
X1023906Y1004390D01*
X1023897Y1004400D01*
X1023877Y1004429D01*
X1023828Y1004468D01*
X1023770Y1004527D01*
X1023692Y1004585D01*
X1023594Y1004644D01*
X1023467Y1004712D01*
X1023331Y1004771D01*
X1023321Y1004780D01*
X1023282Y1004790D01*
X1023204Y1004810D01*
X1023155Y1004829D01*
X1023097Y1004849D01*
X1023019Y1004868D01*
X1022941Y1004888D01*
X1022843Y1004917D01*
X1022746Y1004946D01*
X1022629Y1004976D01*
X1022492Y1005005D01*
X1022346Y1005044D01*
X1022190Y1005083D01*
X1022180D01*
X1022151Y1005092D01*
X1022102Y1005102D01*
X1022043Y1005122D01*
X1021975Y1005141D01*
X1021897Y1005161D01*
X1021712Y1005210D01*
X1021507Y1005278D01*
X1021302Y1005346D01*
X1021117Y1005414D01*
X1021029Y1005444D01*
X1020961Y1005483D01*
X1020951D01*
X1020941Y1005492D01*
X1020883Y1005531D01*
X1020805Y1005580D01*
X1020707Y1005648D01*
X1020590Y1005736D01*
X1020483Y1005834D01*
X1020376Y1005951D01*
X1020278Y1006078D01*
X1020268Y1006097D01*
X1020239Y1006146D01*
X1020210Y1006214D01*
X1020171Y1006312D01*
X1020122Y1006429D01*
X1020093Y1006565D01*
X1020063Y1006721D01*
X1020054Y1006877D01*
Y1006887D01*
Y1006897D01*
Y1006926D01*
Y1006965D01*
X1020073Y1007053D01*
X1020093Y1007170D01*
X1020122Y1007316D01*
X1020171Y1007463D01*
X1020239Y1007628D01*
X1020327Y1007785D01*
Y1007794D01*
X1020337Y1007804D01*
X1020376Y1007853D01*
X1020444Y1007931D01*
X1020532Y1008028D01*
X1020639Y1008126D01*
X1020776Y1008233D01*
X1020941Y1008341D01*
X1021127Y1008428D01*
X1021136D01*
X1021146Y1008438D01*
X1021175Y1008448D01*
X1021224Y1008467D01*
X1021273Y1008477D01*
X1021331Y1008496D01*
X1021468Y1008545D01*
X1021644Y1008584D01*
X1021839Y1008614D01*
X1022063Y1008643D01*
X1022297Y1008653D01*
X1022414D01*
X1022482Y1008643D01*
D02*
G37*
G36*
X1031963Y1002137D02*
X1031134D01*
X1029788Y1007014D01*
Y1007024D01*
X1029778Y1007043D01*
X1029768Y1007073D01*
X1029759Y1007112D01*
X1029729Y1007219D01*
X1029700Y1007336D01*
X1029661Y1007472D01*
X1029632Y1007589D01*
X1029603Y1007697D01*
X1029593Y1007736D01*
X1029583Y1007765D01*
Y1007746D01*
X1029564Y1007697D01*
X1029544Y1007609D01*
X1029515Y1007511D01*
X1029485Y1007385D01*
X1029456Y1007268D01*
X1029417Y1007141D01*
X1029388Y1007014D01*
X1028042Y1002137D01*
X1027154D01*
X1025477Y1008545D01*
X1026345D01*
X1027310Y1004332D01*
Y1004322D01*
X1027320Y1004303D01*
X1027330Y1004263D01*
X1027340Y1004224D01*
X1027349Y1004156D01*
X1027369Y1004088D01*
X1027408Y1003922D01*
X1027447Y1003727D01*
X1027496Y1003503D01*
X1027535Y1003269D01*
X1027583Y1003025D01*
Y1003035D01*
X1027593Y1003074D01*
X1027603Y1003122D01*
X1027623Y1003191D01*
X1027642Y1003269D01*
X1027662Y1003356D01*
X1027720Y1003561D01*
X1027769Y1003766D01*
X1027818Y1003961D01*
X1027837Y1004039D01*
X1027857Y1004117D01*
X1027866Y1004176D01*
X1027876Y1004215D01*
X1029095Y1008545D01*
X1030119D01*
X1031036Y1005297D01*
Y1005288D01*
X1031056Y1005239D01*
X1031066Y1005180D01*
X1031095Y1005092D01*
X1031114Y1004985D01*
X1031153Y1004858D01*
X1031183Y1004712D01*
X1031222Y1004556D01*
X1031261Y1004390D01*
X1031300Y1004215D01*
X1031387Y1003824D01*
X1031465Y1003425D01*
X1031534Y1003025D01*
Y1003035D01*
X1031544Y1003054D01*
Y1003083D01*
X1031553Y1003132D01*
X1031573Y1003191D01*
X1031582Y1003259D01*
X1031602Y1003337D01*
X1031621Y1003425D01*
X1031670Y1003630D01*
X1031719Y1003873D01*
X1031787Y1004137D01*
X1031856Y1004419D01*
X1032850Y1008545D01*
X1033709D01*
X1031963Y1002137D01*
D02*
G37*
G36*
X1036459Y1008565D02*
X1036537Y1008555D01*
X1036625Y1008545D01*
X1036723Y1008536D01*
X1036830Y1008506D01*
X1037064Y1008448D01*
X1037308Y1008360D01*
X1037435Y1008301D01*
X1037552Y1008233D01*
X1037659Y1008145D01*
X1037766Y1008058D01*
X1037776Y1008048D01*
X1037786Y1008038D01*
X1037815Y1008009D01*
X1037854Y1007970D01*
X1037893Y1007911D01*
X1037942Y1007853D01*
X1038039Y1007707D01*
X1038137Y1007521D01*
X1038225Y1007307D01*
X1038293Y1007063D01*
X1038303Y1006926D01*
X1038313Y1006790D01*
Y1006770D01*
Y1006721D01*
X1038303Y1006643D01*
X1038293Y1006546D01*
X1038273Y1006429D01*
X1038244Y1006302D01*
X1038205Y1006165D01*
X1038147Y1006029D01*
X1038137Y1006009D01*
X1038117Y1005961D01*
X1038078Y1005892D01*
X1038020Y1005795D01*
X1037952Y1005678D01*
X1037864Y1005541D01*
X1037747Y1005405D01*
X1037620Y1005249D01*
X1037600Y1005229D01*
X1037552Y1005171D01*
X1037464Y1005083D01*
X1037405Y1005024D01*
X1037337Y1004956D01*
X1037259Y1004878D01*
X1037161Y1004790D01*
X1037064Y1004702D01*
X1036957Y1004595D01*
X1036840Y1004488D01*
X1036703Y1004371D01*
X1036567Y1004254D01*
X1036411Y1004117D01*
X1036401Y1004107D01*
X1036381Y1004088D01*
X1036342Y1004059D01*
X1036293Y1004020D01*
X1036176Y1003922D01*
X1036030Y1003795D01*
X1035884Y1003659D01*
X1035728Y1003522D01*
X1035601Y1003405D01*
X1035552Y1003356D01*
X1035503Y1003308D01*
X1035494Y1003298D01*
X1035474Y1003269D01*
X1035435Y1003230D01*
X1035386Y1003171D01*
X1035279Y1003044D01*
X1035172Y1002888D01*
X1038322D01*
Y1002137D01*
X1034079D01*
Y1002147D01*
Y1002186D01*
Y1002244D01*
X1034089Y1002313D01*
X1034099Y1002391D01*
X1034109Y1002478D01*
X1034138Y1002576D01*
X1034167Y1002674D01*
Y1002683D01*
X1034177Y1002693D01*
X1034196Y1002752D01*
X1034235Y1002830D01*
X1034294Y1002947D01*
X1034362Y1003074D01*
X1034460Y1003220D01*
X1034557Y1003366D01*
X1034684Y1003522D01*
Y1003532D01*
X1034704Y1003542D01*
X1034752Y1003600D01*
X1034830Y1003688D01*
X1034948Y1003805D01*
X1035094Y1003942D01*
X1035269Y1004107D01*
X1035484Y1004293D01*
X1035718Y1004498D01*
X1035728Y1004507D01*
X1035767Y1004537D01*
X1035816Y1004576D01*
X1035884Y1004644D01*
X1035972Y1004712D01*
X1036069Y1004800D01*
X1036284Y1004985D01*
X1036518Y1005210D01*
X1036752Y1005434D01*
X1036869Y1005541D01*
X1036966Y1005648D01*
X1037054Y1005756D01*
X1037132Y1005853D01*
Y1005863D01*
X1037152Y1005873D01*
X1037171Y1005902D01*
X1037191Y1005941D01*
X1037249Y1006039D01*
X1037318Y1006165D01*
X1037386Y1006312D01*
X1037444Y1006468D01*
X1037483Y1006643D01*
X1037503Y1006809D01*
Y1006819D01*
Y1006829D01*
X1037493Y1006887D01*
X1037483Y1006975D01*
X1037464Y1007082D01*
X1037415Y1007209D01*
X1037357Y1007336D01*
X1037279Y1007472D01*
X1037161Y1007599D01*
X1037142Y1007609D01*
X1037103Y1007648D01*
X1037025Y1007697D01*
X1036927Y1007765D01*
X1036801Y1007823D01*
X1036654Y1007872D01*
X1036479Y1007911D01*
X1036284Y1007921D01*
X1036225D01*
X1036186Y1007911D01*
X1036089Y1007902D01*
X1035962Y1007882D01*
X1035816Y1007833D01*
X1035659Y1007775D01*
X1035513Y1007687D01*
X1035377Y1007570D01*
X1035367Y1007550D01*
X1035328Y1007511D01*
X1035269Y1007433D01*
X1035211Y1007326D01*
X1035143Y1007189D01*
X1035094Y1007033D01*
X1035055Y1006848D01*
X1035035Y1006634D01*
X1034226Y1006721D01*
Y1006731D01*
Y1006760D01*
X1034235Y1006809D01*
X1034245Y1006868D01*
X1034265Y1006946D01*
X1034275Y1007033D01*
X1034333Y1007228D01*
X1034411Y1007453D01*
X1034518Y1007677D01*
X1034665Y1007902D01*
X1034743Y1007999D01*
X1034840Y1008097D01*
X1034850Y1008106D01*
X1034869Y1008116D01*
X1034899Y1008145D01*
X1034938Y1008175D01*
X1034996Y1008204D01*
X1035064Y1008253D01*
X1035143Y1008292D01*
X1035230Y1008341D01*
X1035328Y1008380D01*
X1035435Y1008428D01*
X1035562Y1008467D01*
X1035689Y1008496D01*
X1035981Y1008555D01*
X1036137Y1008565D01*
X1036303Y1008575D01*
X1036391D01*
X1036459Y1008565D01*
D02*
G37*
G36*
X803017Y942603D02*
X803095Y942593D01*
X803193Y942583D01*
X803300Y942574D01*
X803417Y942554D01*
X803671Y942495D01*
X803944Y942408D01*
X804080Y942349D01*
X804217Y942281D01*
X804343Y942203D01*
X804470Y942115D01*
X804480Y942105D01*
X804500Y942096D01*
X804529Y942066D01*
X804578Y942027D01*
X804626Y941979D01*
X804695Y941910D01*
X804763Y941842D01*
X804831Y941764D01*
X804909Y941666D01*
X804977Y941569D01*
X805055Y941452D01*
X805134Y941325D01*
X805202Y941198D01*
X805270Y941052D01*
X805387Y940740D01*
X804548Y940545D01*
Y940555D01*
X804539Y940574D01*
X804529Y940613D01*
X804509Y940662D01*
X804480Y940720D01*
X804451Y940789D01*
X804382Y940935D01*
X804295Y941101D01*
X804178Y941276D01*
X804051Y941432D01*
X803895Y941569D01*
X803875Y941579D01*
X803817Y941618D01*
X803729Y941666D01*
X803602Y941735D01*
X803456Y941793D01*
X803271Y941842D01*
X803066Y941881D01*
X802832Y941891D01*
X802763D01*
X802715Y941881D01*
X802646D01*
X802578Y941871D01*
X802402Y941842D01*
X802207Y941803D01*
X802003Y941735D01*
X801798Y941647D01*
X801603Y941530D01*
X801593D01*
X801583Y941510D01*
X801525Y941462D01*
X801437Y941384D01*
X801330Y941276D01*
X801222Y941140D01*
X801105Y940984D01*
X800998Y940789D01*
X800910Y940574D01*
Y940564D01*
X800900Y940545D01*
X800891Y940516D01*
X800881Y940467D01*
X800862Y940418D01*
X800852Y940350D01*
X800813Y940194D01*
X800774Y940008D01*
X800744Y939803D01*
X800725Y939579D01*
X800715Y939345D01*
Y939335D01*
Y939306D01*
Y939267D01*
Y939209D01*
X800725Y939140D01*
Y939053D01*
X800735Y938965D01*
X800744Y938867D01*
X800774Y938643D01*
X800813Y938399D01*
X800871Y938155D01*
X800949Y937921D01*
Y937911D01*
X800959Y937892D01*
X800978Y937863D01*
X800998Y937823D01*
X801047Y937707D01*
X801125Y937580D01*
X801232Y937424D01*
X801359Y937277D01*
X801505Y937131D01*
X801681Y937004D01*
X801691D01*
X801700Y936994D01*
X801730Y936975D01*
X801769Y936955D01*
X801876Y936917D01*
X802012Y936858D01*
X802168Y936809D01*
X802354Y936760D01*
X802559Y936721D01*
X802773Y936712D01*
X802841D01*
X802890Y936721D01*
X802949D01*
X803027Y936731D01*
X803193Y936760D01*
X803378Y936809D01*
X803583Y936887D01*
X803778Y936985D01*
X803973Y937121D01*
X803983Y937131D01*
X803992Y937141D01*
X804051Y937199D01*
X804139Y937297D01*
X804246Y937424D01*
X804353Y937599D01*
X804470Y937804D01*
X804568Y938058D01*
X804646Y938341D01*
X805494Y938126D01*
Y938116D01*
X805485Y938077D01*
X805465Y938028D01*
X805446Y937950D01*
X805407Y937872D01*
X805368Y937765D01*
X805329Y937658D01*
X805270Y937541D01*
X805143Y937277D01*
X804968Y937014D01*
X804773Y936760D01*
X804656Y936643D01*
X804529Y936536D01*
X804519Y936526D01*
X804500Y936517D01*
X804461Y936487D01*
X804402Y936448D01*
X804334Y936409D01*
X804256Y936360D01*
X804168Y936312D01*
X804061Y936263D01*
X803944Y936214D01*
X803817Y936165D01*
X803671Y936117D01*
X803524Y936078D01*
X803202Y936009D01*
X803027Y936000D01*
X802841Y935990D01*
X802744D01*
X802666Y936000D01*
X802578D01*
X802481Y936009D01*
X802364Y936029D01*
X802246Y936039D01*
X801973Y936097D01*
X801691Y936165D01*
X801417Y936273D01*
X801281Y936331D01*
X801154Y936409D01*
X801144Y936419D01*
X801125Y936429D01*
X801096Y936458D01*
X801047Y936487D01*
X800930Y936585D01*
X800793Y936721D01*
X800627Y936887D01*
X800471Y937102D01*
X800305Y937346D01*
X800169Y937628D01*
Y937638D01*
X800159Y937667D01*
X800140Y937707D01*
X800120Y937765D01*
X800091Y937843D01*
X800062Y937931D01*
X800032Y938028D01*
X800003Y938145D01*
X799974Y938262D01*
X799945Y938399D01*
X799886Y938692D01*
X799847Y939004D01*
X799837Y939345D01*
Y939355D01*
Y939394D01*
Y939443D01*
X799847Y939511D01*
Y939599D01*
X799857Y939706D01*
X799867Y939813D01*
X799886Y939940D01*
X799935Y940213D01*
X799993Y940506D01*
X800091Y940808D01*
X800218Y941091D01*
Y941101D01*
X800237Y941120D01*
X800257Y941159D01*
X800286Y941218D01*
X800325Y941276D01*
X800374Y941345D01*
X800501Y941510D01*
X800647Y941696D01*
X800832Y941881D01*
X801057Y942066D01*
X801300Y942222D01*
X801310D01*
X801330Y942242D01*
X801369Y942261D01*
X801427Y942281D01*
X801486Y942310D01*
X801564Y942349D01*
X801661Y942378D01*
X801759Y942418D01*
X801866Y942457D01*
X801983Y942486D01*
X802246Y942554D01*
X802539Y942593D01*
X802851Y942613D01*
X802949D01*
X803017Y942603D01*
D02*
G37*
G36*
X809181Y936097D02*
X808391D01*
Y941111D01*
X808382Y941101D01*
X808343Y941062D01*
X808274Y941013D01*
X808186Y940945D01*
X808079Y940857D01*
X807952Y940769D01*
X807806Y940662D01*
X807640Y940564D01*
X807630D01*
X807621Y940555D01*
X807562Y940516D01*
X807474Y940467D01*
X807367Y940408D01*
X807240Y940340D01*
X807104Y940282D01*
X806957Y940213D01*
X806821Y940155D01*
Y940925D01*
X806831D01*
X806850Y940935D01*
X806889Y940955D01*
X806928Y940984D01*
X806987Y941013D01*
X807055Y941042D01*
X807211Y941130D01*
X807387Y941237D01*
X807582Y941364D01*
X807777Y941510D01*
X807962Y941666D01*
X807972Y941676D01*
X807982Y941686D01*
X808040Y941745D01*
X808128Y941832D01*
X808235Y941940D01*
X808352Y942076D01*
X808469Y942222D01*
X808577Y942378D01*
X808664Y942534D01*
X809181D01*
Y936097D01*
D02*
G37*
G36*
X753749Y942603D02*
X753828Y942593D01*
X753925Y942583D01*
X754032Y942574D01*
X754149Y942554D01*
X754403Y942495D01*
X754676Y942408D01*
X754813Y942349D01*
X754949Y942281D01*
X755076Y942203D01*
X755203Y942115D01*
X755213Y942105D01*
X755232Y942096D01*
X755261Y942066D01*
X755310Y942027D01*
X755359Y941979D01*
X755427Y941910D01*
X755495Y941842D01*
X755564Y941764D01*
X755642Y941666D01*
X755710Y941569D01*
X755788Y941452D01*
X755866Y941325D01*
X755934Y941198D01*
X756003Y941052D01*
X756120Y940740D01*
X755281Y940545D01*
Y940555D01*
X755271Y940574D01*
X755261Y940613D01*
X755242Y940662D01*
X755213Y940720D01*
X755183Y940789D01*
X755115Y940935D01*
X755027Y941101D01*
X754910Y941276D01*
X754783Y941432D01*
X754627Y941569D01*
X754608Y941579D01*
X754549Y941618D01*
X754462Y941666D01*
X754335Y941735D01*
X754189Y941793D01*
X754003Y941842D01*
X753798Y941881D01*
X753564Y941891D01*
X753496D01*
X753447Y941881D01*
X753379D01*
X753311Y941871D01*
X753135Y941842D01*
X752940Y941803D01*
X752735Y941735D01*
X752530Y941647D01*
X752335Y941530D01*
X752326D01*
X752316Y941510D01*
X752257Y941462D01*
X752169Y941384D01*
X752062Y941276D01*
X751955Y941140D01*
X751838Y940984D01*
X751731Y940789D01*
X751643Y940574D01*
Y940564D01*
X751633Y940545D01*
X751623Y940516D01*
X751613Y940467D01*
X751594Y940418D01*
X751584Y940350D01*
X751545Y940194D01*
X751506Y940008D01*
X751477Y939803D01*
X751458Y939579D01*
X751448Y939345D01*
Y939335D01*
Y939306D01*
Y939267D01*
Y939209D01*
X751458Y939140D01*
Y939053D01*
X751467Y938965D01*
X751477Y938867D01*
X751506Y938643D01*
X751545Y938399D01*
X751604Y938155D01*
X751682Y937921D01*
Y937911D01*
X751692Y937892D01*
X751711Y937863D01*
X751731Y937823D01*
X751779Y937707D01*
X751857Y937580D01*
X751965Y937424D01*
X752091Y937277D01*
X752238Y937131D01*
X752413Y937004D01*
X752423D01*
X752433Y936994D01*
X752462Y936975D01*
X752501Y936955D01*
X752608Y936917D01*
X752745Y936858D01*
X752901Y936809D01*
X753086Y936760D01*
X753291Y936721D01*
X753506Y936712D01*
X753574D01*
X753623Y936721D01*
X753681D01*
X753759Y936731D01*
X753925Y936760D01*
X754110Y936809D01*
X754315Y936887D01*
X754510Y936985D01*
X754705Y937121D01*
X754715Y937131D01*
X754725Y937141D01*
X754783Y937199D01*
X754871Y937297D01*
X754978Y937424D01*
X755086Y937599D01*
X755203Y937804D01*
X755300Y938058D01*
X755378Y938341D01*
X756227Y938126D01*
Y938116D01*
X756217Y938077D01*
X756198Y938028D01*
X756178Y937950D01*
X756139Y937872D01*
X756100Y937765D01*
X756061Y937658D01*
X756003Y937541D01*
X755876Y937277D01*
X755700Y937014D01*
X755505Y936760D01*
X755388Y936643D01*
X755261Y936536D01*
X755252Y936526D01*
X755232Y936517D01*
X755193Y936487D01*
X755135Y936448D01*
X755066Y936409D01*
X754988Y936360D01*
X754901Y936312D01*
X754793Y936263D01*
X754676Y936214D01*
X754549Y936165D01*
X754403Y936117D01*
X754257Y936078D01*
X753935Y936009D01*
X753759Y936000D01*
X753574Y935990D01*
X753476D01*
X753398Y936000D01*
X753311D01*
X753213Y936009D01*
X753096Y936029D01*
X752979Y936039D01*
X752706Y936097D01*
X752423Y936165D01*
X752150Y936273D01*
X752013Y936331D01*
X751887Y936409D01*
X751877Y936419D01*
X751857Y936429D01*
X751828Y936458D01*
X751779Y936487D01*
X751662Y936585D01*
X751526Y936721D01*
X751360Y936887D01*
X751204Y937102D01*
X751038Y937346D01*
X750901Y937628D01*
Y937638D01*
X750892Y937667D01*
X750872Y937707D01*
X750853Y937765D01*
X750824Y937843D01*
X750794Y937931D01*
X750765Y938028D01*
X750736Y938145D01*
X750706Y938262D01*
X750677Y938399D01*
X750619Y938692D01*
X750580Y939004D01*
X750570Y939345D01*
Y939355D01*
Y939394D01*
Y939443D01*
X750580Y939511D01*
Y939599D01*
X750589Y939706D01*
X750599Y939813D01*
X750619Y939940D01*
X750667Y940213D01*
X750726Y940506D01*
X750824Y940808D01*
X750950Y941091D01*
Y941101D01*
X750970Y941120D01*
X750989Y941159D01*
X751019Y941218D01*
X751058Y941276D01*
X751106Y941345D01*
X751233Y941510D01*
X751379Y941696D01*
X751565Y941881D01*
X751789Y942066D01*
X752033Y942222D01*
X752043D01*
X752062Y942242D01*
X752101Y942261D01*
X752160Y942281D01*
X752218Y942310D01*
X752296Y942349D01*
X752394Y942378D01*
X752491Y942418D01*
X752599Y942457D01*
X752716Y942486D01*
X752979Y942554D01*
X753272Y942593D01*
X753584Y942613D01*
X753681D01*
X753749Y942603D01*
D02*
G37*
G36*
X759221Y942525D02*
X759299Y942515D01*
X759387Y942505D01*
X759485Y942495D01*
X759592Y942466D01*
X759826Y942408D01*
X760070Y942320D01*
X760197Y942261D01*
X760314Y942193D01*
X760421Y942105D01*
X760528Y942018D01*
X760538Y942008D01*
X760548Y941998D01*
X760577Y941969D01*
X760616Y941930D01*
X760655Y941871D01*
X760704Y941813D01*
X760801Y941666D01*
X760899Y941481D01*
X760987Y941267D01*
X761055Y941023D01*
X761065Y940886D01*
X761075Y940750D01*
Y940730D01*
Y940681D01*
X761065Y940603D01*
X761055Y940506D01*
X761036Y940389D01*
X761006Y940262D01*
X760967Y940125D01*
X760909Y939989D01*
X760899Y939969D01*
X760879Y939921D01*
X760840Y939852D01*
X760782Y939755D01*
X760714Y939638D01*
X760626Y939501D01*
X760509Y939365D01*
X760382Y939209D01*
X760362Y939189D01*
X760314Y939130D01*
X760226Y939043D01*
X760167Y938984D01*
X760099Y938916D01*
X760021Y938838D01*
X759924Y938750D01*
X759826Y938662D01*
X759719Y938555D01*
X759602Y938448D01*
X759465Y938331D01*
X759329Y938214D01*
X759173Y938077D01*
X759163Y938067D01*
X759143Y938048D01*
X759104Y938019D01*
X759055Y937980D01*
X758939Y937882D01*
X758792Y937755D01*
X758646Y937619D01*
X758490Y937482D01*
X758363Y937365D01*
X758314Y937316D01*
X758266Y937268D01*
X758256Y937258D01*
X758236Y937229D01*
X758197Y937190D01*
X758148Y937131D01*
X758041Y937004D01*
X757934Y936848D01*
X761084D01*
Y936097D01*
X756841D01*
Y936107D01*
Y936146D01*
Y936205D01*
X756851Y936273D01*
X756861Y936351D01*
X756871Y936439D01*
X756900Y936536D01*
X756929Y936634D01*
Y936643D01*
X756939Y936653D01*
X756958Y936712D01*
X756998Y936790D01*
X757056Y936907D01*
X757124Y937033D01*
X757222Y937180D01*
X757319Y937326D01*
X757446Y937482D01*
Y937492D01*
X757466Y937502D01*
X757514Y937560D01*
X757592Y937648D01*
X757710Y937765D01*
X757856Y937902D01*
X758031Y938067D01*
X758246Y938253D01*
X758480Y938457D01*
X758490Y938467D01*
X758529Y938496D01*
X758578Y938536D01*
X758646Y938604D01*
X758734Y938672D01*
X758831Y938760D01*
X759046Y938945D01*
X759280Y939169D01*
X759514Y939394D01*
X759631Y939501D01*
X759728Y939609D01*
X759816Y939716D01*
X759894Y939813D01*
Y939823D01*
X759914Y939833D01*
X759933Y939862D01*
X759953Y939901D01*
X760011Y939999D01*
X760080Y940125D01*
X760148Y940272D01*
X760206Y940428D01*
X760245Y940603D01*
X760265Y940769D01*
Y940779D01*
Y940789D01*
X760255Y940847D01*
X760245Y940935D01*
X760226Y941042D01*
X760177Y941169D01*
X760119Y941296D01*
X760041Y941432D01*
X759924Y941559D01*
X759904Y941569D01*
X759865Y941608D01*
X759787Y941657D01*
X759689Y941725D01*
X759563Y941784D01*
X759416Y941832D01*
X759241Y941871D01*
X759046Y941881D01*
X758987D01*
X758948Y941871D01*
X758851Y941861D01*
X758724Y941842D01*
X758578Y941793D01*
X758421Y941735D01*
X758275Y941647D01*
X758139Y941530D01*
X758129Y941510D01*
X758090Y941471D01*
X758031Y941393D01*
X757973Y941286D01*
X757905Y941150D01*
X757856Y940993D01*
X757817Y940808D01*
X757797Y940594D01*
X756988Y940681D01*
Y940691D01*
Y940720D01*
X756998Y940769D01*
X757007Y940828D01*
X757027Y940906D01*
X757037Y940993D01*
X757095Y941189D01*
X757173Y941413D01*
X757280Y941637D01*
X757427Y941861D01*
X757505Y941959D01*
X757602Y942057D01*
X757612Y942066D01*
X757632Y942076D01*
X757661Y942105D01*
X757700Y942135D01*
X757758Y942164D01*
X757827Y942213D01*
X757905Y942252D01*
X757992Y942300D01*
X758090Y942339D01*
X758197Y942388D01*
X758324Y942427D01*
X758451Y942457D01*
X758743Y942515D01*
X758899Y942525D01*
X759065Y942534D01*
X759153D01*
X759221Y942525D01*
D02*
G37*
G36*
X403349Y929877D02*
X403339D01*
X403319D01*
X403280D01*
X403232Y929867D01*
X403173D01*
X403105Y929857D01*
X402949Y929828D01*
X402773Y929799D01*
X402607Y929750D01*
X402461Y929682D01*
X402393Y929643D01*
X402334Y929604D01*
X402324Y929594D01*
X402295Y929555D01*
X402247Y929506D01*
X402207Y929428D01*
X402159Y929331D01*
X402110Y929214D01*
X402081Y929077D01*
X402071Y928921D01*
Y928862D01*
X402081Y928804D01*
X402090Y928736D01*
X402110Y928648D01*
X402129Y928550D01*
X402169Y928463D01*
X402217Y928375D01*
X402227Y928365D01*
X402247Y928336D01*
X402276Y928297D01*
X402324Y928248D01*
X402373Y928189D01*
X402442Y928141D01*
X402520Y928092D01*
X402607Y928053D01*
X402617D01*
X402656Y928033D01*
X402715Y928024D01*
X402802Y928004D01*
X402920Y927985D01*
X403056Y927975D01*
X403222Y927955D01*
X403417D01*
X407835D01*
Y927107D01*
X403466D01*
X403456D01*
X403427D01*
X403388D01*
X403329D01*
X403261Y927116D01*
X403183D01*
X403007Y927126D01*
X402802Y927156D01*
X402598Y927185D01*
X402393Y927234D01*
X402217Y927302D01*
X402198Y927312D01*
X402149Y927341D01*
X402071Y927390D01*
X401973Y927448D01*
X401856Y927536D01*
X401749Y927643D01*
X401642Y927780D01*
X401544Y927926D01*
X401535Y927946D01*
X401505Y928004D01*
X401476Y928092D01*
X401437Y928209D01*
X401388Y928355D01*
X401359Y928521D01*
X401330Y928716D01*
X401320Y928921D01*
Y928999D01*
X401330Y929057D01*
X401339Y929126D01*
X401349Y929214D01*
X401378Y929399D01*
X401437Y929604D01*
X401525Y929818D01*
X401573Y929926D01*
X401642Y930023D01*
X401710Y930121D01*
X401798Y930208D01*
X401808D01*
X401817Y930228D01*
X401847Y930247D01*
X401886Y930277D01*
X401944Y930316D01*
X402003Y930345D01*
X402081Y930394D01*
X402159Y930433D01*
X402256Y930472D01*
X402364Y930511D01*
X402481Y930550D01*
X402617Y930579D01*
X402754Y930608D01*
X402910Y930628D01*
X403066Y930638D01*
X403241D01*
X403349Y929877D01*
D02*
G37*
G36*
X401603Y926141D02*
X401681Y926131D01*
X401769Y926122D01*
X401866Y926092D01*
X401964Y926063D01*
X401973D01*
X401983Y926053D01*
X402042Y926034D01*
X402120Y925995D01*
X402237Y925936D01*
X402364Y925868D01*
X402510Y925770D01*
X402656Y925673D01*
X402812Y925546D01*
X402822D01*
X402832Y925527D01*
X402890Y925478D01*
X402978Y925400D01*
X403095Y925283D01*
X403232Y925137D01*
X403397Y924961D01*
X403583Y924746D01*
X403788Y924512D01*
X403797Y924503D01*
X403827Y924464D01*
X403866Y924415D01*
X403934Y924346D01*
X404002Y924259D01*
X404090Y924161D01*
X404275Y923947D01*
X404500Y923712D01*
X404724Y923478D01*
X404831Y923361D01*
X404939Y923264D01*
X405046Y923176D01*
X405143Y923098D01*
X405153D01*
X405163Y923079D01*
X405192Y923059D01*
X405231Y923039D01*
X405329Y922981D01*
X405455Y922913D01*
X405602Y922844D01*
X405758Y922786D01*
X405933Y922747D01*
X406099Y922727D01*
X406109D01*
X406119D01*
X406177Y922737D01*
X406265Y922747D01*
X406372Y922766D01*
X406499Y922815D01*
X406626Y922874D01*
X406762Y922952D01*
X406889Y923069D01*
X406899Y923088D01*
X406938Y923127D01*
X406987Y923205D01*
X407055Y923303D01*
X407113Y923430D01*
X407162Y923576D01*
X407201Y923752D01*
X407211Y923947D01*
Y924005D01*
X407201Y924044D01*
X407192Y924142D01*
X407172Y924268D01*
X407123Y924415D01*
X407065Y924571D01*
X406977Y924717D01*
X406860Y924854D01*
X406840Y924864D01*
X406801Y924902D01*
X406723Y924961D01*
X406616Y925020D01*
X406480Y925088D01*
X406324Y925137D01*
X406138Y925176D01*
X405924Y925195D01*
X406011Y926005D01*
X406021D01*
X406050D01*
X406099Y925995D01*
X406158Y925985D01*
X406236Y925966D01*
X406324Y925956D01*
X406519Y925897D01*
X406743Y925819D01*
X406967Y925712D01*
X407192Y925566D01*
X407289Y925488D01*
X407387Y925390D01*
X407396Y925380D01*
X407406Y925361D01*
X407435Y925332D01*
X407465Y925293D01*
X407494Y925234D01*
X407543Y925166D01*
X407582Y925088D01*
X407631Y925000D01*
X407669Y924902D01*
X407718Y924795D01*
X407757Y924668D01*
X407786Y924542D01*
X407845Y924249D01*
X407855Y924093D01*
X407865Y923927D01*
Y923839D01*
X407855Y923771D01*
X407845Y923693D01*
X407835Y923605D01*
X407826Y923508D01*
X407796Y923400D01*
X407738Y923166D01*
X407650Y922923D01*
X407592Y922796D01*
X407523Y922679D01*
X407435Y922571D01*
X407348Y922464D01*
X407338Y922454D01*
X407328Y922445D01*
X407299Y922415D01*
X407260Y922376D01*
X407201Y922337D01*
X407143Y922289D01*
X406996Y922191D01*
X406811Y922093D01*
X406597Y922006D01*
X406353Y921937D01*
X406216Y921928D01*
X406080Y921918D01*
X406060D01*
X406011D01*
X405933Y921928D01*
X405836Y921937D01*
X405719Y921957D01*
X405592Y921986D01*
X405455Y922025D01*
X405319Y922084D01*
X405299Y922093D01*
X405251Y922113D01*
X405182Y922152D01*
X405085Y922210D01*
X404968Y922279D01*
X404831Y922366D01*
X404695Y922484D01*
X404539Y922610D01*
X404519Y922630D01*
X404461Y922679D01*
X404373Y922766D01*
X404314Y922825D01*
X404246Y922893D01*
X404168Y922971D01*
X404080Y923069D01*
X403992Y923166D01*
X403885Y923274D01*
X403778Y923391D01*
X403661Y923527D01*
X403544Y923664D01*
X403407Y923820D01*
X403397Y923830D01*
X403378Y923849D01*
X403349Y923888D01*
X403310Y923937D01*
X403212Y924054D01*
X403085Y924200D01*
X402949Y924346D01*
X402812Y924503D01*
X402695Y924629D01*
X402646Y924678D01*
X402598Y924727D01*
X402588Y924737D01*
X402559Y924756D01*
X402520Y924795D01*
X402461Y924844D01*
X402334Y924951D01*
X402178Y925059D01*
Y921908D01*
X401427D01*
Y926151D01*
X401437D01*
X401476D01*
X401535D01*
X401603Y926141D01*
D02*
G37*
%LPC*%
G36*
X859802Y804060D02*
X859782D01*
X859743D01*
X859675Y804050D01*
X859597Y804040D01*
X859500Y804011D01*
X859392Y803982D01*
X859285Y803933D01*
X859187Y803865D01*
X859178Y803855D01*
X859139Y803836D01*
X859100Y803787D01*
X859041Y803728D01*
X858973Y803660D01*
X858914Y803572D01*
X858856Y803475D01*
X858807Y803358D01*
X858797Y803338D01*
X858788Y803299D01*
X858768Y803221D01*
X858748Y803123D01*
X858729Y802987D01*
X858719Y802831D01*
X858700Y802636D01*
Y800948D01*
X860904D01*
Y802763D01*
X860894Y802958D01*
X860885Y803046D01*
X860875Y803114D01*
Y803123D01*
X860865Y803163D01*
X860855Y803221D01*
X860836Y803289D01*
X860787Y803445D01*
X860709Y803601D01*
X860699Y803611D01*
X860689Y803641D01*
X860660Y803670D01*
X860611Y803718D01*
X860563Y803777D01*
X860504Y803826D01*
X860426Y803884D01*
X860348Y803933D01*
X860338Y803943D01*
X860309Y803953D01*
X860260Y803972D01*
X860192Y804001D01*
X860114Y804021D01*
X860016Y804040D01*
X859919Y804050D01*
X859802Y804060D01*
D02*
G37*
G36*
X856993Y803787D02*
X856983D01*
X856934D01*
X856876Y803777D01*
X856798Y803767D01*
X856710Y803748D01*
X856622Y803718D01*
X856525Y803680D01*
X856427Y803631D01*
X856417Y803621D01*
X856388Y803601D01*
X856349Y803562D01*
X856291Y803514D01*
X856242Y803455D01*
X856183Y803377D01*
X856135Y803289D01*
X856096Y803192D01*
Y803182D01*
X856076Y803133D01*
X856066Y803065D01*
X856047Y802968D01*
X856027Y802831D01*
X856018Y802665D01*
X855998Y802460D01*
Y800948D01*
X857949D01*
Y802519D01*
X857939Y802636D01*
X857929Y802772D01*
X857919Y802909D01*
X857900Y803026D01*
X857880Y803133D01*
X857871Y803143D01*
X857861Y803182D01*
X857841Y803241D01*
X857802Y803319D01*
X857763Y803397D01*
X857705Y803475D01*
X857637Y803553D01*
X857559Y803621D01*
X857549Y803631D01*
X857520Y803650D01*
X857471Y803670D01*
X857402Y803709D01*
X857325Y803738D01*
X857227Y803757D01*
X857120Y803777D01*
X856993Y803787D01*
D02*
G37*
%LPD*%
D39*
X841400Y497280D02*
X923900D01*
Y427280D02*
Y497280D01*
X841400Y427280D02*
X923900D01*
X841400D02*
Y497280D01*
X802760Y431000D02*
Y458000D01*
X817760D01*
Y431000D02*
Y458000D01*
X802760Y431000D02*
X817760D01*
X728680Y720100D02*
X994630D01*
Y880100D01*
X728680D02*
X994630D01*
X728680Y720100D02*
Y880100D01*
X929350Y909860D02*
Y939260D01*
X848650D02*
X929350D01*
X848650Y909860D02*
Y939260D01*
Y909860D02*
X929350D01*
X981010Y956480D02*
Y1047580D01*
Y956480D02*
X1058610D01*
Y1047580D01*
X981010D02*
X1058610D01*
X778838Y949990D02*
X820837D01*
Y921990D02*
Y949990D01*
X778838Y921990D02*
X820837D01*
X778838D02*
Y949990D01*
X729570D02*
X771570D01*
Y921990D02*
Y949990D01*
X729570Y921990D02*
X771570D01*
X729570D02*
Y949990D01*
X386820Y1011588D02*
X415820D01*
X386820Y849688D02*
Y1011588D01*
Y849688D02*
X415820D01*
Y1011588D01*
%TF.MD5,137e8cb999235e9eaeadcf485eebafdc*%
M02*
