%TF.GenerationSoftware,Altium Limited,Altium Designer,24.6.1 (21)*%
G04 Layer_Physical_Order=2*
G04 Layer_Color=16711680*
%FSLAX44Y44*%
%MOMM*%
%TF.SameCoordinates,BF409B1A-1CF9-43DC-8BE1-D3214C2D7C54*%
%TF.FilePolarity,Positive*%
%TF.FileFunction,Copper,L2,Bot,Signal*%
%TF.Part,Single*%
G01*
G75*
%TA.AperFunction,Conductor*%
%ADD15C,0.2540*%
%TA.AperFunction,ComponentPad*%
%ADD17R,1.5500X1.5500*%
%ADD18C,1.5500*%
%ADD19C,1.3500*%
%ADD20R,1.3500X1.3500*%
%ADD21C,1.3810*%
%ADD22R,1.3810X1.3810*%
%ADD23C,1.0700*%
%ADD24R,1.0700X1.0700*%
%ADD25C,1.4000*%
%ADD26R,1.4000X1.4000*%
%ADD27C,1.5700*%
%ADD28R,1.5700X1.5700*%
%ADD29C,1.2900*%
%ADD30R,1.2900X1.2900*%
%ADD31C,1.2000*%
%ADD32R,1.2000X1.2000*%
%ADD33R,1.5700X1.5700*%
%ADD34R,1.1590X1.1590*%
%ADD35C,1.1590*%
%TA.AperFunction,ViaPad*%
%ADD36C,1.2700*%
G36*
X1062355Y354330D02*
X379010D01*
X377216Y356129D01*
X379709Y1192530D01*
X1062355Y1192530D01*
Y354330D01*
D02*
G37*
%LPC*%
G36*
X753942Y1172879D02*
Y1165860D01*
X760961D01*
X760440Y1167807D01*
X759342Y1169708D01*
X757790Y1171260D01*
X755890Y1172357D01*
X753942Y1172879D01*
D02*
G37*
G36*
X751403Y1172879D02*
X749455Y1172357D01*
X747555Y1171260D01*
X746003Y1169708D01*
X744905Y1167807D01*
X744384Y1165860D01*
X751403D01*
Y1172879D01*
D02*
G37*
G36*
X931436Y1171909D02*
X929509D01*
X927647Y1171410D01*
X925979Y1170447D01*
X924616Y1169084D01*
X923652Y1167415D01*
X923154Y1165554D01*
Y1163626D01*
X923652Y1161765D01*
X924616Y1160096D01*
X925979Y1158733D01*
X927647Y1157770D01*
X929509Y1157271D01*
X931436D01*
X933298Y1157770D01*
X934967Y1158733D01*
X936329Y1160096D01*
X937293Y1161765D01*
X937792Y1163626D01*
Y1165554D01*
X937293Y1167415D01*
X936329Y1169084D01*
X934967Y1170447D01*
X933298Y1171410D01*
X931436Y1171909D01*
D02*
G37*
G36*
X906036D02*
X904109D01*
X902247Y1171410D01*
X900579Y1170447D01*
X899216Y1169084D01*
X898252Y1167415D01*
X897754Y1165554D01*
Y1163626D01*
X898252Y1161765D01*
X899216Y1160096D01*
X900579Y1158733D01*
X902247Y1157770D01*
X904109Y1157271D01*
X906036D01*
X907897Y1157770D01*
X909566Y1158733D01*
X910929Y1160096D01*
X911893Y1161765D01*
X912392Y1163626D01*
Y1165554D01*
X911893Y1167415D01*
X910929Y1169084D01*
X909566Y1170447D01*
X907897Y1171410D01*
X906036Y1171909D01*
D02*
G37*
G36*
X880636D02*
X878709D01*
X876848Y1171410D01*
X875179Y1170447D01*
X873816Y1169084D01*
X872852Y1167415D01*
X872354Y1165554D01*
Y1163626D01*
X872852Y1161765D01*
X873816Y1160096D01*
X875179Y1158733D01*
X876848Y1157770D01*
X878709Y1157271D01*
X880636D01*
X882497Y1157770D01*
X884166Y1158733D01*
X885529Y1160096D01*
X886493Y1161765D01*
X886992Y1163626D01*
Y1165554D01*
X886493Y1167415D01*
X885529Y1169084D01*
X884166Y1170447D01*
X882497Y1171410D01*
X880636Y1171909D01*
D02*
G37*
G36*
X855236D02*
X853309D01*
X851448Y1171410D01*
X849779Y1170447D01*
X848416Y1169084D01*
X847452Y1167415D01*
X846954Y1165554D01*
Y1163626D01*
X847452Y1161765D01*
X848416Y1160096D01*
X849779Y1158733D01*
X851448Y1157770D01*
X853309Y1157271D01*
X855236D01*
X857097Y1157770D01*
X858766Y1158733D01*
X860129Y1160096D01*
X861093Y1161765D01*
X861591Y1163626D01*
Y1165554D01*
X861093Y1167415D01*
X860129Y1169084D01*
X858766Y1170447D01*
X857097Y1171410D01*
X855236Y1171909D01*
D02*
G37*
G36*
X829836D02*
X827909D01*
X826048Y1171410D01*
X824379Y1170447D01*
X823016Y1169084D01*
X822052Y1167415D01*
X821554Y1165554D01*
Y1163626D01*
X822052Y1161765D01*
X823016Y1160096D01*
X824379Y1158733D01*
X826048Y1157770D01*
X827909Y1157271D01*
X829836D01*
X831697Y1157770D01*
X833366Y1158733D01*
X834729Y1160096D01*
X835693Y1161765D01*
X836191Y1163626D01*
Y1165554D01*
X835693Y1167415D01*
X834729Y1169084D01*
X833366Y1170447D01*
X831697Y1171410D01*
X829836Y1171909D01*
D02*
G37*
G36*
X804436D02*
X802509D01*
X800648Y1171410D01*
X798979Y1170447D01*
X797616Y1169084D01*
X796652Y1167415D01*
X796154Y1165554D01*
Y1163626D01*
X796652Y1161765D01*
X797616Y1160096D01*
X798979Y1158733D01*
X800648Y1157770D01*
X802509Y1157271D01*
X804436D01*
X806298Y1157770D01*
X807967Y1158733D01*
X809329Y1160096D01*
X810293Y1161765D01*
X810791Y1163626D01*
Y1165554D01*
X810293Y1167415D01*
X809329Y1169084D01*
X807967Y1170447D01*
X806298Y1171410D01*
X804436Y1171909D01*
D02*
G37*
G36*
X779036D02*
X777109D01*
X775247Y1171410D01*
X773579Y1170447D01*
X772216Y1169084D01*
X771252Y1167415D01*
X770754Y1165554D01*
Y1163626D01*
X771252Y1161765D01*
X772216Y1160096D01*
X773579Y1158733D01*
X775247Y1157770D01*
X777109Y1157271D01*
X779036D01*
X780898Y1157770D01*
X782567Y1158733D01*
X783929Y1160096D01*
X784893Y1161765D01*
X785391Y1163626D01*
Y1165554D01*
X784893Y1167415D01*
X783929Y1169084D01*
X782567Y1170447D01*
X780898Y1171410D01*
X779036Y1171909D01*
D02*
G37*
G36*
X728236D02*
X726309D01*
X724447Y1171410D01*
X722779Y1170447D01*
X721416Y1169084D01*
X720452Y1167415D01*
X719954Y1165554D01*
Y1163626D01*
X720452Y1161765D01*
X721416Y1160096D01*
X722779Y1158733D01*
X724447Y1157770D01*
X726309Y1157271D01*
X728236D01*
X730098Y1157770D01*
X731767Y1158733D01*
X733129Y1160096D01*
X734093Y1161765D01*
X734592Y1163626D01*
Y1165554D01*
X734093Y1167415D01*
X733129Y1169084D01*
X731767Y1170447D01*
X730098Y1171410D01*
X728236Y1171909D01*
D02*
G37*
G36*
X702836D02*
X700909D01*
X699047Y1171410D01*
X697379Y1170447D01*
X696016Y1169084D01*
X695052Y1167415D01*
X694554Y1165554D01*
Y1163626D01*
X695052Y1161765D01*
X696016Y1160096D01*
X697379Y1158733D01*
X699047Y1157770D01*
X700909Y1157271D01*
X702836D01*
X704697Y1157770D01*
X706367Y1158733D01*
X707729Y1160096D01*
X708693Y1161765D01*
X709192Y1163626D01*
Y1165554D01*
X708693Y1167415D01*
X707729Y1169084D01*
X706367Y1170447D01*
X704697Y1171410D01*
X702836Y1171909D01*
D02*
G37*
G36*
X677436D02*
X675509D01*
X673648Y1171410D01*
X671979Y1170447D01*
X670616Y1169084D01*
X669652Y1167415D01*
X669154Y1165554D01*
Y1163626D01*
X669652Y1161765D01*
X670616Y1160096D01*
X671979Y1158733D01*
X673648Y1157770D01*
X675509Y1157271D01*
X677436D01*
X679297Y1157770D01*
X680966Y1158733D01*
X682329Y1160096D01*
X683293Y1161765D01*
X683792Y1163626D01*
Y1165554D01*
X683293Y1167415D01*
X682329Y1169084D01*
X680966Y1170447D01*
X679297Y1171410D01*
X677436Y1171909D01*
D02*
G37*
G36*
X652036D02*
X650109D01*
X648248Y1171410D01*
X646579Y1170447D01*
X645216Y1169084D01*
X644252Y1167415D01*
X643754Y1165554D01*
Y1163626D01*
X644252Y1161765D01*
X645216Y1160096D01*
X646579Y1158733D01*
X648248Y1157770D01*
X650109Y1157271D01*
X652036D01*
X653897Y1157770D01*
X655566Y1158733D01*
X656929Y1160096D01*
X657893Y1161765D01*
X658391Y1163626D01*
Y1165554D01*
X657893Y1167415D01*
X656929Y1169084D01*
X655566Y1170447D01*
X653897Y1171410D01*
X652036Y1171909D01*
D02*
G37*
G36*
X626636D02*
X624709D01*
X622848Y1171410D01*
X621179Y1170447D01*
X619816Y1169084D01*
X618852Y1167415D01*
X618354Y1165554D01*
Y1163626D01*
X618852Y1161765D01*
X619816Y1160096D01*
X621179Y1158733D01*
X622848Y1157770D01*
X624709Y1157271D01*
X626636D01*
X628498Y1157770D01*
X630167Y1158733D01*
X631529Y1160096D01*
X632493Y1161765D01*
X632991Y1163626D01*
Y1165554D01*
X632493Y1167415D01*
X631529Y1169084D01*
X630167Y1170447D01*
X628498Y1171410D01*
X626636Y1171909D01*
D02*
G37*
G36*
X601236D02*
X599309D01*
X597448Y1171410D01*
X595779Y1170447D01*
X594416Y1169084D01*
X593452Y1167415D01*
X592954Y1165554D01*
Y1163626D01*
X593452Y1161765D01*
X594416Y1160096D01*
X595779Y1158733D01*
X597448Y1157770D01*
X599309Y1157271D01*
X601236D01*
X603097Y1157770D01*
X604767Y1158733D01*
X606129Y1160096D01*
X607093Y1161765D01*
X607592Y1163626D01*
Y1165554D01*
X607093Y1167415D01*
X606129Y1169084D01*
X604767Y1170447D01*
X603097Y1171410D01*
X601236Y1171909D01*
D02*
G37*
G36*
X751403Y1163320D02*
X744384D01*
X744905Y1161373D01*
X746003Y1159472D01*
X747555Y1157920D01*
X749455Y1156823D01*
X751403Y1156301D01*
Y1163320D01*
D02*
G37*
G36*
X760961D02*
X753942D01*
Y1156301D01*
X755890Y1156823D01*
X757790Y1157920D01*
X759342Y1159472D01*
X760440Y1161373D01*
X760961Y1163320D01*
D02*
G37*
G36*
X456330Y1120786D02*
Y1112520D01*
X464596D01*
X463950Y1114932D01*
X462694Y1117108D01*
X460918Y1118884D01*
X458742Y1120140D01*
X456330Y1120786D01*
D02*
G37*
G36*
X453790D02*
X451378Y1120140D01*
X449202Y1118884D01*
X447426Y1117108D01*
X446170Y1114932D01*
X445524Y1112520D01*
X453790D01*
Y1120786D01*
D02*
G37*
G36*
X464596Y1109980D02*
X456330D01*
Y1101714D01*
X458742Y1102360D01*
X460918Y1103616D01*
X462694Y1105392D01*
X463950Y1107568D01*
X464596Y1109980D01*
D02*
G37*
G36*
X453790D02*
X445524D01*
X446170Y1107568D01*
X447426Y1105392D01*
X449202Y1103616D01*
X451378Y1102360D01*
X453790Y1101714D01*
Y1109980D01*
D02*
G37*
G36*
X779342Y1093499D02*
Y1086480D01*
X786361D01*
X785839Y1088427D01*
X784742Y1090328D01*
X783190Y1091880D01*
X781290Y1092977D01*
X779342Y1093499D01*
D02*
G37*
G36*
X776803Y1093499D02*
X774855Y1092977D01*
X772955Y1091880D01*
X771403Y1090328D01*
X770305Y1088427D01*
X769784Y1086480D01*
X776803D01*
Y1093499D01*
D02*
G37*
G36*
X880636Y1092529D02*
X878709D01*
X876848Y1092030D01*
X875179Y1091067D01*
X873816Y1089704D01*
X872852Y1088035D01*
X872354Y1086174D01*
Y1084247D01*
X872852Y1082385D01*
X873816Y1080716D01*
X875179Y1079353D01*
X876848Y1078390D01*
X878709Y1077891D01*
X880636D01*
X882497Y1078390D01*
X884166Y1079353D01*
X885529Y1080716D01*
X886493Y1082385D01*
X886992Y1084247D01*
Y1086174D01*
X886493Y1088035D01*
X885529Y1089704D01*
X884166Y1091067D01*
X882497Y1092030D01*
X880636Y1092529D01*
D02*
G37*
G36*
X855236D02*
X853309D01*
X851448Y1092030D01*
X849779Y1091067D01*
X848416Y1089704D01*
X847452Y1088035D01*
X846954Y1086174D01*
Y1084247D01*
X847452Y1082385D01*
X848416Y1080716D01*
X849779Y1079353D01*
X851448Y1078390D01*
X853309Y1077891D01*
X855236D01*
X857097Y1078390D01*
X858766Y1079353D01*
X860129Y1080716D01*
X861093Y1082385D01*
X861591Y1084247D01*
Y1086174D01*
X861093Y1088035D01*
X860129Y1089704D01*
X858766Y1091067D01*
X857097Y1092030D01*
X855236Y1092529D01*
D02*
G37*
G36*
X829836D02*
X827909D01*
X826048Y1092030D01*
X824379Y1091067D01*
X823016Y1089704D01*
X822052Y1088035D01*
X821554Y1086174D01*
Y1084247D01*
X822052Y1082385D01*
X823016Y1080716D01*
X824379Y1079353D01*
X826048Y1078390D01*
X827909Y1077891D01*
X829836D01*
X831697Y1078390D01*
X833366Y1079353D01*
X834729Y1080716D01*
X835693Y1082385D01*
X836191Y1084247D01*
Y1086174D01*
X835693Y1088035D01*
X834729Y1089704D01*
X833366Y1091067D01*
X831697Y1092030D01*
X829836Y1092529D01*
D02*
G37*
G36*
X804436D02*
X802509D01*
X800648Y1092030D01*
X798979Y1091067D01*
X797616Y1089704D01*
X796652Y1088035D01*
X796154Y1086174D01*
Y1084247D01*
X796652Y1082385D01*
X797616Y1080716D01*
X798979Y1079353D01*
X800648Y1078390D01*
X802509Y1077891D01*
X804436D01*
X806298Y1078390D01*
X807967Y1079353D01*
X809329Y1080716D01*
X810293Y1082385D01*
X810791Y1084247D01*
Y1086174D01*
X810293Y1088035D01*
X809329Y1089704D01*
X807967Y1091067D01*
X806298Y1092030D01*
X804436Y1092529D01*
D02*
G37*
G36*
X753636D02*
X751709D01*
X749847Y1092030D01*
X748179Y1091067D01*
X746816Y1089704D01*
X745852Y1088035D01*
X745354Y1086174D01*
Y1084247D01*
X745852Y1082385D01*
X746816Y1080716D01*
X748179Y1079353D01*
X749847Y1078390D01*
X751709Y1077891D01*
X753636D01*
X755498Y1078390D01*
X757167Y1079353D01*
X758529Y1080716D01*
X759493Y1082385D01*
X759992Y1084247D01*
Y1086174D01*
X759493Y1088035D01*
X758529Y1089704D01*
X757167Y1091067D01*
X755498Y1092030D01*
X753636Y1092529D01*
D02*
G37*
G36*
X728236D02*
X726309D01*
X724447Y1092030D01*
X722779Y1091067D01*
X721416Y1089704D01*
X720452Y1088035D01*
X719954Y1086174D01*
Y1084247D01*
X720452Y1082385D01*
X721416Y1080716D01*
X722779Y1079353D01*
X724447Y1078390D01*
X726309Y1077891D01*
X728236D01*
X730098Y1078390D01*
X731767Y1079353D01*
X733129Y1080716D01*
X734093Y1082385D01*
X734592Y1084247D01*
Y1086174D01*
X734093Y1088035D01*
X733129Y1089704D01*
X731767Y1091067D01*
X730098Y1092030D01*
X728236Y1092529D01*
D02*
G37*
G36*
X677436D02*
X675509D01*
X673648Y1092030D01*
X671979Y1091067D01*
X670616Y1089704D01*
X669652Y1088035D01*
X669154Y1086174D01*
Y1084247D01*
X669652Y1082385D01*
X670616Y1080716D01*
X671979Y1079353D01*
X673648Y1078390D01*
X675509Y1077891D01*
X677436D01*
X679297Y1078390D01*
X680966Y1079353D01*
X682329Y1080716D01*
X683293Y1082385D01*
X683792Y1084247D01*
Y1086174D01*
X683293Y1088035D01*
X682329Y1089704D01*
X680966Y1091067D01*
X679297Y1092030D01*
X677436Y1092529D01*
D02*
G37*
G36*
X652036D02*
X650109D01*
X648248Y1092030D01*
X646579Y1091067D01*
X645216Y1089704D01*
X644252Y1088035D01*
X643754Y1086174D01*
Y1084247D01*
X644252Y1082385D01*
X645216Y1080716D01*
X646579Y1079353D01*
X648248Y1078390D01*
X650109Y1077891D01*
X652036D01*
X653897Y1078390D01*
X655566Y1079353D01*
X656929Y1080716D01*
X657893Y1082385D01*
X658391Y1084247D01*
Y1086174D01*
X657893Y1088035D01*
X656929Y1089704D01*
X655566Y1091067D01*
X653897Y1092030D01*
X652036Y1092529D01*
D02*
G37*
G36*
X626636D02*
X624709D01*
X622848Y1092030D01*
X621179Y1091067D01*
X619816Y1089704D01*
X618852Y1088035D01*
X618354Y1086174D01*
Y1084247D01*
X618852Y1082385D01*
X619816Y1080716D01*
X621179Y1079353D01*
X622848Y1078390D01*
X624709Y1077891D01*
X626636D01*
X628498Y1078390D01*
X630167Y1079353D01*
X631529Y1080716D01*
X632493Y1082385D01*
X632991Y1084247D01*
Y1086174D01*
X632493Y1088035D01*
X631529Y1089704D01*
X630167Y1091067D01*
X628498Y1092030D01*
X626636Y1092529D01*
D02*
G37*
G36*
X607592D02*
X592954D01*
Y1088807D01*
X591439Y1088059D01*
X479420D01*
X478330Y1087842D01*
X477406Y1087224D01*
X477406Y1087224D01*
X405886Y1015704D01*
X405268Y1014780D01*
X405051Y1013690D01*
X405051Y1013690D01*
Y1005026D01*
X404303Y1003512D01*
X391946D01*
Y984763D01*
X410694D01*
Y1000442D01*
X410749Y1000717D01*
X410749Y1000718D01*
Y1001843D01*
X410789Y1001937D01*
X410819Y1004477D01*
X410816Y1004487D01*
X410820Y1004497D01*
X410749Y1004668D01*
Y1012510D01*
X480600Y1082361D01*
X591439D01*
X592954Y1081613D01*
Y1077891D01*
X607592D01*
Y1092529D01*
D02*
G37*
G36*
X776803Y1083940D02*
X769784D01*
X770305Y1081993D01*
X771403Y1080092D01*
X772955Y1078540D01*
X774855Y1077443D01*
X776803Y1076921D01*
Y1083940D01*
D02*
G37*
G36*
X786361D02*
X779342D01*
Y1076921D01*
X781290Y1077443D01*
X783190Y1078540D01*
X784742Y1080092D01*
X785839Y1081993D01*
X786361Y1083940D01*
D02*
G37*
G36*
X702836Y1092529D02*
X700909D01*
X699047Y1092030D01*
X697379Y1091067D01*
X696016Y1089704D01*
X695052Y1088035D01*
X694554Y1086174D01*
Y1085681D01*
X694491Y1085602D01*
X693008Y1080375D01*
X660745Y1048111D01*
X655600Y1051083D01*
X655487Y1051098D01*
X655075Y1051511D01*
X653279Y1052547D01*
X651277Y1053084D01*
X649203D01*
X647201Y1052547D01*
X646224Y1051984D01*
X646011Y1051977D01*
X640099Y1049329D01*
X518160D01*
X517070Y1049112D01*
X516146Y1048494D01*
X516146Y1048494D01*
X509796Y1042144D01*
X509178Y1041220D01*
X508961Y1040130D01*
X508961Y1040130D01*
Y1039296D01*
X505937Y1034060D01*
X505922Y1033947D01*
X505509Y1033535D01*
X504473Y1031739D01*
X503936Y1029737D01*
Y1027663D01*
X504256Y1026469D01*
X503146Y1024472D01*
X502540Y1023929D01*
X498843D01*
X493154Y1026728D01*
X493019Y1026737D01*
X491553Y1027583D01*
X489551Y1028120D01*
X487478D01*
X485475Y1027583D01*
X483679Y1026547D01*
X482213Y1025080D01*
X481177Y1023285D01*
X480640Y1021282D01*
Y1019209D01*
X481177Y1017206D01*
X482213Y1015411D01*
X483679Y1013945D01*
X485475Y1012908D01*
X487478Y1012372D01*
X489551D01*
X491553Y1012908D01*
X493349Y1013945D01*
X494456Y1015052D01*
X494508Y1015062D01*
X499265Y1018231D01*
X503115D01*
X507360Y1013986D01*
X507360Y1013986D01*
X508284Y1013368D01*
X509375Y1013151D01*
X509375Y1013151D01*
X523240D01*
X523240Y1013151D01*
X524330Y1013368D01*
X525254Y1013986D01*
X537120Y1025851D01*
X614244D01*
X619480Y1022827D01*
X619593Y1022812D01*
X620005Y1022399D01*
X621801Y1021363D01*
X623803Y1020826D01*
X625877D01*
X627879Y1021363D01*
X629675Y1022399D01*
X630087Y1022812D01*
X630200Y1022827D01*
X635437Y1025851D01*
X863599D01*
X868377Y1022405D01*
X868409Y1022350D01*
X869950Y1020809D01*
X871836Y1019720D01*
X873941Y1019156D01*
X876119D01*
X878224Y1019720D01*
X880110Y1020809D01*
X881651Y1022350D01*
X882740Y1024236D01*
X883304Y1026341D01*
Y1028519D01*
X882740Y1030624D01*
X881651Y1032510D01*
X880110Y1034051D01*
X878224Y1035140D01*
X876119Y1035704D01*
X873941D01*
X871836Y1035140D01*
X870696Y1034482D01*
X870488Y1034473D01*
X864209Y1031549D01*
X635437D01*
X630200Y1034573D01*
X630087Y1034588D01*
X629675Y1035001D01*
X627879Y1036037D01*
X625877Y1036574D01*
X623803D01*
X621801Y1036037D01*
X620005Y1035001D01*
X619593Y1034588D01*
X619480Y1034573D01*
X614244Y1031549D01*
X535940D01*
X535940Y1031549D01*
X534850Y1031332D01*
X533926Y1030714D01*
X533926Y1030714D01*
X522060Y1018849D01*
X515281D01*
X514849Y1021363D01*
X516645Y1022399D01*
X518111Y1023865D01*
X519147Y1025661D01*
X519684Y1027663D01*
Y1029737D01*
X519147Y1031739D01*
X518111Y1033535D01*
X517698Y1033947D01*
X517683Y1034060D01*
X514786Y1039077D01*
X519340Y1043631D01*
X639452D01*
X643889Y1040462D01*
X643939Y1040375D01*
X645405Y1038909D01*
X647201Y1037873D01*
X649203Y1037336D01*
X651277D01*
X653279Y1037873D01*
X655075Y1038909D01*
X655487Y1039322D01*
X655600Y1039337D01*
X660836Y1042361D01*
X661872D01*
X661872Y1042361D01*
X662963Y1042578D01*
X663887Y1043196D01*
X697037Y1076346D01*
X702265Y1077828D01*
X702344Y1077891D01*
X702836D01*
X704697Y1078390D01*
X706367Y1079353D01*
X707729Y1080716D01*
X708693Y1082385D01*
X709192Y1084247D01*
Y1086174D01*
X708693Y1088035D01*
X707729Y1089704D01*
X706367Y1091067D01*
X704697Y1092030D01*
X702836Y1092529D01*
D02*
G37*
G36*
X513584Y1119774D02*
X496536D01*
Y1102726D01*
X513584D01*
Y1107653D01*
X515098Y1108401D01*
X960210D01*
X1022887Y1045724D01*
X1024466Y1039772D01*
X1024536Y1039680D01*
Y1039080D01*
X1025079Y1037052D01*
X1026129Y1035234D01*
X1027614Y1033749D01*
X1029432Y1032699D01*
X1031460Y1032156D01*
X1033560D01*
X1035588Y1032699D01*
X1037406Y1033749D01*
X1038891Y1035234D01*
X1039941Y1037052D01*
X1040484Y1039080D01*
Y1041180D01*
X1039941Y1043208D01*
X1038891Y1045026D01*
X1037406Y1046511D01*
X1035588Y1047561D01*
X1033560Y1048104D01*
X1032960D01*
X1032868Y1048174D01*
X1026916Y1049753D01*
X963404Y1113264D01*
X962480Y1113882D01*
X961390Y1114099D01*
X961390Y1114099D01*
X515098D01*
X513584Y1114847D01*
Y1119774D01*
D02*
G37*
G36*
X1008160Y1048104D02*
X1006060D01*
X1004032Y1047561D01*
X1002214Y1046511D01*
X1000729Y1045026D01*
X999679Y1043208D01*
X999136Y1041180D01*
Y1039080D01*
X999679Y1037052D01*
X1000729Y1035234D01*
X1002214Y1033749D01*
X1004032Y1032699D01*
X1006060Y1032156D01*
X1008160D01*
X1010188Y1032699D01*
X1012006Y1033749D01*
X1013491Y1035234D01*
X1014541Y1037052D01*
X1015084Y1039080D01*
Y1041180D01*
X1014541Y1043208D01*
X1013491Y1045026D01*
X1012006Y1046511D01*
X1010188Y1047561D01*
X1008160Y1048104D01*
D02*
G37*
G36*
X901519Y1010304D02*
X899341D01*
X897236Y1009740D01*
X895350Y1008651D01*
X893809Y1007110D01*
X892720Y1005224D01*
X892156Y1003119D01*
Y1000941D01*
X892720Y998836D01*
X893809Y996950D01*
X895350Y995409D01*
X897236Y994320D01*
X899341Y993756D01*
X901519D01*
X903624Y994320D01*
X905510Y995409D01*
X907051Y996950D01*
X908140Y998836D01*
X908704Y1000941D01*
Y1003119D01*
X908140Y1005224D01*
X907051Y1007110D01*
X905510Y1008651D01*
X903624Y1009740D01*
X901519Y1010304D01*
D02*
G37*
G36*
X789478Y993044D02*
X787497D01*
X785583Y992531D01*
X783868Y991541D01*
X782467Y990140D01*
X781476Y988424D01*
X780964Y986510D01*
Y984529D01*
X781476Y982616D01*
X782467Y980900D01*
X783868Y979499D01*
X785583Y978509D01*
X787497Y977996D01*
X789478D01*
X791392Y978509D01*
X793107Y979499D01*
X794508Y980900D01*
X795499Y982616D01*
X796011Y984529D01*
Y986510D01*
X795499Y988424D01*
X794508Y990140D01*
X793107Y991541D01*
X791392Y992531D01*
X789478Y993044D01*
D02*
G37*
G36*
X747211D02*
X732163D01*
Y977996D01*
X747211D01*
Y993044D01*
D02*
G37*
G36*
X884320Y985920D02*
X876300D01*
Y977900D01*
X884320D01*
Y985920D01*
D02*
G37*
G36*
X873760D02*
X865740D01*
Y977900D01*
X873760D01*
Y985920D01*
D02*
G37*
G36*
X884320Y975360D02*
X876300D01*
Y967340D01*
X884320D01*
Y975360D01*
D02*
G37*
G36*
X873760D02*
X865740D01*
Y967340D01*
X873760D01*
Y975360D01*
D02*
G37*
G36*
X402554Y978111D02*
X400086D01*
X397702Y977473D01*
X395564Y976239D01*
X393819Y974493D01*
X392585Y972356D01*
X391946Y969972D01*
Y967503D01*
X392585Y965119D01*
X393819Y962982D01*
X395564Y961236D01*
X397702Y960002D01*
X400086Y959363D01*
X402554D01*
X404938Y960002D01*
X407076Y961236D01*
X408821Y962982D01*
X410055Y965119D01*
X410694Y967503D01*
Y969972D01*
X410055Y972356D01*
X408821Y974493D01*
X407076Y976239D01*
X404938Y977473D01*
X402554Y978111D01*
D02*
G37*
G36*
X931436Y1092529D02*
X929509D01*
X927647Y1092030D01*
X925979Y1091067D01*
X924616Y1089704D01*
X923652Y1088035D01*
X923154Y1086174D01*
Y1084247D01*
X923652Y1082385D01*
X924616Y1080716D01*
X924964Y1080368D01*
X924976Y1080268D01*
X927624Y1075523D01*
Y1065968D01*
X927624Y1065967D01*
X927841Y1064877D01*
X928458Y1063953D01*
X1022887Y969524D01*
X1024466Y963572D01*
X1024536Y963480D01*
Y962880D01*
X1025079Y960852D01*
X1026129Y959034D01*
X1027614Y957549D01*
X1029432Y956499D01*
X1031460Y955956D01*
X1033560D01*
X1035588Y956499D01*
X1037406Y957549D01*
X1038891Y959034D01*
X1039941Y960852D01*
X1040484Y962880D01*
Y964980D01*
X1039941Y967008D01*
X1038891Y968826D01*
X1037406Y970311D01*
X1035588Y971361D01*
X1033560Y971904D01*
X1032960D01*
X1032868Y971974D01*
X1026916Y973553D01*
X933321Y1067148D01*
Y1075523D01*
X935969Y1080268D01*
X935981Y1080368D01*
X936329Y1080716D01*
X937293Y1082385D01*
X937792Y1084247D01*
Y1086174D01*
X937293Y1088035D01*
X936329Y1089704D01*
X934967Y1091067D01*
X933298Y1092030D01*
X931436Y1092529D01*
D02*
G37*
G36*
X1015084Y971904D02*
X999136D01*
Y955956D01*
X1015084D01*
Y971904D01*
D02*
G37*
G36*
X813607Y944491D02*
Y937260D01*
X820838D01*
X820295Y939286D01*
X819171Y941234D01*
X817581Y942824D01*
X815634Y943948D01*
X813607Y944491D01*
D02*
G37*
G36*
X811068D02*
X809041Y943948D01*
X807094Y942824D01*
X805504Y941234D01*
X804380Y939286D01*
X803837Y937260D01*
X811068D01*
Y944491D01*
D02*
G37*
G36*
X764340D02*
Y937260D01*
X771571D01*
X771028Y939286D01*
X769904Y941234D01*
X768314Y942824D01*
X766366Y943948D01*
X764340Y944491D01*
D02*
G37*
G36*
X761800D02*
X759774Y943948D01*
X757826Y942824D01*
X756236Y941234D01*
X755112Y939286D01*
X754569Y937260D01*
X761800D01*
Y944491D01*
D02*
G37*
G36*
X402554Y952711D02*
X400086D01*
X397702Y952073D01*
X395564Y950839D01*
X393819Y949093D01*
X392585Y946956D01*
X391946Y944572D01*
Y942103D01*
X392585Y939719D01*
X393819Y937582D01*
X395564Y935836D01*
X397702Y934602D01*
X400086Y933963D01*
X402554D01*
X404938Y934602D01*
X407076Y935836D01*
X408821Y937582D01*
X410055Y939719D01*
X410694Y942103D01*
Y944572D01*
X410055Y946956D01*
X408821Y949093D01*
X407076Y950839D01*
X404938Y952073D01*
X402554Y952711D01*
D02*
G37*
G36*
X794862Y943514D02*
X779814D01*
Y928466D01*
X794862D01*
Y943514D01*
D02*
G37*
G36*
X745594D02*
X730546D01*
Y928466D01*
X745594D01*
Y943514D01*
D02*
G37*
G36*
X820838Y934720D02*
X813607D01*
Y927489D01*
X815634Y928032D01*
X817581Y929156D01*
X819171Y930746D01*
X820295Y932694D01*
X820838Y934720D01*
D02*
G37*
G36*
X811068D02*
X803837D01*
X804380Y932694D01*
X805504Y930746D01*
X807094Y929156D01*
X809041Y928032D01*
X811068Y927489D01*
Y934720D01*
D02*
G37*
G36*
X771571D02*
X764340D01*
Y927489D01*
X766366Y928032D01*
X768314Y929156D01*
X769904Y930746D01*
X771028Y932694D01*
X771571Y934720D01*
D02*
G37*
G36*
X761800D02*
X754569D01*
X755112Y932694D01*
X756236Y930746D01*
X757826Y929156D01*
X759774Y928032D01*
X761800Y927489D01*
Y934720D01*
D02*
G37*
G36*
X890368Y934950D02*
X890270D01*
Y925830D01*
X899390D01*
Y925928D01*
X898682Y928570D01*
X897314Y930940D01*
X895380Y932874D01*
X893010Y934242D01*
X890368Y934950D01*
D02*
G37*
G36*
X887730D02*
X887632D01*
X884990Y934242D01*
X882620Y932874D01*
X880686Y930940D01*
X879318Y928570D01*
X878610Y925928D01*
Y925830D01*
X887730D01*
Y934950D01*
D02*
G37*
G36*
X923774Y933934D02*
X905026D01*
Y915186D01*
X923774D01*
Y933934D01*
D02*
G37*
G36*
X899390Y923290D02*
X890270D01*
Y914170D01*
X890368D01*
X893010Y914878D01*
X895380Y916246D01*
X897314Y918180D01*
X898682Y920550D01*
X899390Y923192D01*
Y923290D01*
D02*
G37*
G36*
X887730D02*
X878610D01*
Y923192D01*
X879318Y920550D01*
X880686Y918180D01*
X882620Y916246D01*
X884990Y914878D01*
X887632Y914170D01*
X887730D01*
Y923290D01*
D02*
G37*
G36*
X402554Y927311D02*
X400086D01*
X397702Y926673D01*
X395564Y925439D01*
X393819Y923693D01*
X392585Y921556D01*
X391946Y919172D01*
Y916703D01*
X392585Y914319D01*
X393819Y912182D01*
X395564Y910436D01*
X397702Y909202D01*
X400086Y908564D01*
X402554D01*
X404938Y909202D01*
X407076Y910436D01*
X408821Y912182D01*
X410055Y914319D01*
X410694Y916703D01*
Y919172D01*
X410055Y921556D01*
X408821Y923693D01*
X407076Y925439D01*
X404938Y926673D01*
X402554Y927311D01*
D02*
G37*
G36*
Y901911D02*
X400086D01*
X397702Y901273D01*
X395564Y900039D01*
X393819Y898293D01*
X392585Y896156D01*
X391946Y893772D01*
Y891303D01*
X392585Y888919D01*
X393819Y886782D01*
X395564Y885036D01*
X397702Y883802D01*
X400086Y883164D01*
X402554D01*
X404938Y883802D01*
X407076Y885036D01*
X408821Y886782D01*
X410055Y888919D01*
X410694Y891303D01*
Y893772D01*
X410055Y896156D01*
X408821Y898293D01*
X407076Y900039D01*
X404938Y901273D01*
X402554Y901911D01*
D02*
G37*
G36*
X402688Y877527D02*
X402590D01*
Y868408D01*
X411710D01*
Y868505D01*
X411002Y871148D01*
X409634Y873517D01*
X407700Y875452D01*
X405330Y876819D01*
X402688Y877527D01*
D02*
G37*
G36*
X400050D02*
X399952D01*
X397310Y876819D01*
X394940Y875452D01*
X393006Y873517D01*
X391638Y871148D01*
X390930Y868505D01*
Y868408D01*
X400050D01*
Y877527D01*
D02*
G37*
G36*
X554757Y988314D02*
X552683D01*
X550681Y987777D01*
X548885Y986741D01*
X547419Y985275D01*
X546383Y983479D01*
X545846Y981477D01*
Y979403D01*
X546383Y977401D01*
X547419Y975605D01*
X547832Y975193D01*
X547847Y975080D01*
X550871Y969844D01*
Y863184D01*
X548331Y862850D01*
X547693Y865233D01*
X547624Y865323D01*
Y865907D01*
X547087Y867909D01*
X546051Y869705D01*
X544585Y871171D01*
X542789Y872207D01*
X540787Y872744D01*
X538713D01*
X536711Y872207D01*
X534915Y871171D01*
X533449Y869705D01*
X532413Y867909D01*
X531876Y865907D01*
Y863833D01*
X532413Y861831D01*
X533449Y860035D01*
X534915Y858569D01*
X536711Y857533D01*
X538713Y856996D01*
X539297D01*
X539387Y856927D01*
X545228Y855363D01*
X577541Y823050D01*
Y766990D01*
X568499Y757948D01*
X565959Y759000D01*
Y770429D01*
X549101D01*
Y753571D01*
X550370D01*
X551422Y751031D01*
X500906Y700514D01*
X500288Y699590D01*
X500071Y698500D01*
X500071Y698500D01*
Y587748D01*
X498356Y586033D01*
X473775D01*
X472413Y586768D01*
X471694Y589010D01*
X471694D01*
Y602758D01*
X457946D01*
Y589010D01*
X457946Y589010D01*
X458780Y586470D01*
X458414Y585837D01*
X458080Y584590D01*
X456607Y583870D01*
X455406Y583673D01*
X449889Y589190D01*
Y772993D01*
X452913Y778230D01*
X452928Y778343D01*
X453341Y778755D01*
X454377Y780551D01*
X454914Y782553D01*
Y784627D01*
X454377Y786629D01*
X453341Y788425D01*
X451875Y789891D01*
X450079Y790927D01*
X448077Y791464D01*
X446003D01*
X444001Y790927D01*
X442205Y789891D01*
X440739Y788425D01*
X439703Y786629D01*
X439166Y784627D01*
Y782553D01*
X439703Y780551D01*
X440739Y778755D01*
X441152Y778343D01*
X441167Y778230D01*
X444191Y772993D01*
Y588010D01*
X444191Y588010D01*
X444408Y586920D01*
X445026Y585995D01*
X456386Y574635D01*
X457899Y569860D01*
X457946Y569804D01*
Y569579D01*
X458414Y567831D01*
X459319Y566263D01*
X459817Y565766D01*
X460331Y564134D01*
X459817Y562502D01*
X459319Y562005D01*
X458414Y560437D01*
X457946Y558689D01*
Y556879D01*
X458414Y555131D01*
X459319Y553563D01*
X460599Y552283D01*
X462167Y551379D01*
X463915Y550910D01*
X465725D01*
X467473Y551379D01*
X469041Y552283D01*
X470321Y553563D01*
X471226Y555131D01*
X471694Y556879D01*
Y558689D01*
X471226Y560437D01*
X470321Y562005D01*
X469823Y562502D01*
X469309Y564134D01*
X469823Y565766D01*
X470321Y566263D01*
X471226Y567831D01*
X471694Y569579D01*
Y571389D01*
X471226Y573137D01*
X470321Y574705D01*
X469823Y575202D01*
X469527Y576141D01*
X469516Y576338D01*
X469711Y577528D01*
X470059Y578330D01*
X473775Y580335D01*
X498356D01*
X500071Y578620D01*
Y496181D01*
X498356Y494466D01*
X473775D01*
X472413Y495201D01*
X471694Y497443D01*
X471694D01*
Y511191D01*
X457946D01*
Y497443D01*
X457946Y497443D01*
X458780Y494903D01*
X458414Y494270D01*
X457946Y492522D01*
Y490712D01*
X458414Y488964D01*
X459319Y487396D01*
X459817Y486899D01*
X460331Y485267D01*
X459817Y483635D01*
X459319Y483138D01*
X458414Y481570D01*
X457946Y479822D01*
Y478012D01*
X458414Y476264D01*
X459319Y474696D01*
X459817Y474199D01*
X460331Y472567D01*
X459817Y470935D01*
X459319Y470438D01*
X458414Y468870D01*
X457946Y467122D01*
Y465312D01*
X458414Y463564D01*
X459319Y461996D01*
X460599Y460716D01*
X462167Y459812D01*
X463915Y459343D01*
X465725D01*
X467473Y459812D01*
X469041Y460716D01*
X470321Y461996D01*
X471226Y463564D01*
X471694Y465312D01*
Y467122D01*
X471226Y468870D01*
X470321Y470438D01*
X469823Y470935D01*
X469309Y472567D01*
X469823Y474199D01*
X470321Y474696D01*
X471226Y476264D01*
X471694Y478012D01*
Y479822D01*
X471226Y481570D01*
X470321Y483138D01*
X469823Y483635D01*
X469527Y484574D01*
X469516Y484771D01*
X469711Y485961D01*
X470059Y486763D01*
X473775Y488768D01*
X498356D01*
X500071Y487053D01*
Y416081D01*
X486889Y402899D01*
X473775D01*
X472413Y403634D01*
X471694Y405876D01*
X471694D01*
Y419624D01*
X457946D01*
Y405876D01*
X457946Y405876D01*
X458780Y403336D01*
X458414Y402703D01*
X457946Y400955D01*
Y399145D01*
X458414Y397397D01*
X459319Y395829D01*
X459817Y395332D01*
X460331Y393700D01*
X459817Y392068D01*
X459319Y391571D01*
X458414Y390003D01*
X457946Y388255D01*
Y386445D01*
X458414Y384697D01*
X459319Y383129D01*
X459817Y382632D01*
X460331Y381000D01*
X459817Y379368D01*
X459319Y378871D01*
X458414Y377303D01*
X457946Y375555D01*
Y373745D01*
X458414Y371997D01*
X459319Y370429D01*
X460599Y369149D01*
X462167Y368245D01*
X463915Y367776D01*
X465725D01*
X467473Y368245D01*
X469041Y369149D01*
X470321Y370429D01*
X471226Y371997D01*
X471694Y373745D01*
Y375555D01*
X471226Y377303D01*
X470321Y378871D01*
X469823Y379368D01*
X469309Y381000D01*
X469823Y382632D01*
X470321Y383129D01*
X471226Y384697D01*
X471694Y386445D01*
Y388255D01*
X471226Y390003D01*
X470321Y391571D01*
X469823Y392068D01*
X469561Y392900D01*
X469522Y393238D01*
X469711Y394394D01*
X470059Y395196D01*
X473775Y397201D01*
X488069D01*
X488069Y397201D01*
X489159Y397418D01*
X490083Y398036D01*
X504934Y412887D01*
X504934Y412887D01*
X505552Y413811D01*
X505769Y414901D01*
X505769Y414901D01*
Y491236D01*
X505807Y491293D01*
X505769Y491490D01*
Y491744D01*
X505807Y491940D01*
X505769Y491998D01*
Y582803D01*
X505807Y582860D01*
X505769Y583057D01*
Y583311D01*
X505807Y583507D01*
X505769Y583565D01*
Y697320D01*
X507813Y699365D01*
X509503Y698760D01*
X510231Y698190D01*
Y391160D01*
X510231Y391160D01*
X510448Y390070D01*
X511066Y389146D01*
X527576Y372636D01*
X527576Y372636D01*
X528500Y372018D01*
X529590Y371801D01*
X529590Y371801D01*
X560005D01*
X564356Y369453D01*
X564444Y369444D01*
X564739Y369149D01*
X566307Y368245D01*
X568055Y367776D01*
X569865D01*
X571613Y368245D01*
X573181Y369149D01*
X574461Y370429D01*
X575365Y371997D01*
X575834Y373745D01*
Y375555D01*
X575365Y377303D01*
X574461Y378871D01*
X573963Y379368D01*
X573449Y381000D01*
X573963Y382632D01*
X574461Y383129D01*
X575365Y384697D01*
X575834Y386445D01*
Y388255D01*
X575365Y390003D01*
X574461Y391571D01*
X573963Y392068D01*
X573701Y392900D01*
X573662Y393238D01*
X573851Y394394D01*
X574199Y395196D01*
X577915Y397201D01*
X596900D01*
X596900Y397201D01*
X597990Y397418D01*
X598914Y398036D01*
X617964Y417086D01*
X617964Y417086D01*
X618582Y418010D01*
X618799Y419100D01*
Y491109D01*
X618838Y491166D01*
X618799Y491363D01*
Y491617D01*
X618838Y491814D01*
X618799Y491871D01*
Y583184D01*
Y584200D01*
X618799Y584200D01*
X618799Y584200D01*
Y752054D01*
X619557Y753571D01*
X624379D01*
Y765422D01*
X626726Y766394D01*
X634691Y758428D01*
Y407670D01*
X634691Y407670D01*
X634908Y406580D01*
X635526Y405656D01*
X655846Y385336D01*
X655846Y385336D01*
X656770Y384718D01*
X657860Y384501D01*
X671765D01*
X675481Y382496D01*
X675829Y381694D01*
X676018Y380538D01*
X675979Y380200D01*
X675717Y379368D01*
X675219Y378871D01*
X674314Y377303D01*
X673846Y375555D01*
Y373745D01*
X674314Y371997D01*
X675219Y370429D01*
X676499Y369149D01*
X678067Y368245D01*
X679815Y367776D01*
X681625D01*
X683373Y368245D01*
X684941Y369149D01*
X686221Y370429D01*
X687125Y371997D01*
X687594Y373745D01*
Y375555D01*
X687125Y377303D01*
X686221Y378871D01*
X685723Y379368D01*
X685209Y381000D01*
X685723Y382632D01*
X686221Y383129D01*
X687125Y384697D01*
X687594Y386445D01*
Y388255D01*
X687125Y390003D01*
X686221Y391571D01*
X685723Y392068D01*
X685209Y393700D01*
X685723Y395332D01*
X686221Y395829D01*
X687125Y397397D01*
X687594Y399145D01*
Y400955D01*
X687125Y402703D01*
X686760Y403336D01*
X687594Y405876D01*
X687594D01*
Y409153D01*
X689108Y409901D01*
X698500D01*
X698500Y409901D01*
X699590Y410118D01*
X700514Y410736D01*
X713214Y423436D01*
X713214Y423436D01*
X713832Y424360D01*
X714049Y425450D01*
X714049Y425450D01*
Y819150D01*
X713832Y820240D01*
X713214Y821164D01*
X713214Y821164D01*
X678924Y855454D01*
X678000Y856072D01*
X676910Y856289D01*
X676910Y856289D01*
X583697D01*
X578460Y859313D01*
X578347Y859328D01*
X577935Y859741D01*
X576139Y860777D01*
X574137Y861314D01*
X572063D01*
X570061Y860777D01*
X568265Y859741D01*
X566799Y858275D01*
X565763Y856479D01*
X565226Y854477D01*
Y854199D01*
X562686Y853147D01*
X556569Y859264D01*
Y969844D01*
X559593Y975080D01*
X559608Y975193D01*
X560021Y975605D01*
X561057Y977401D01*
X561594Y979403D01*
Y981477D01*
X561057Y983479D01*
X560021Y985275D01*
X558555Y986741D01*
X556759Y987777D01*
X554757Y988314D01*
D02*
G37*
G36*
X411710Y865867D02*
X402590D01*
Y856748D01*
X402688D01*
X405330Y857456D01*
X407700Y858823D01*
X409634Y860758D01*
X411002Y863127D01*
X411710Y865770D01*
Y865867D01*
D02*
G37*
G36*
X400050D02*
X390930D01*
Y865770D01*
X391638Y863127D01*
X393006Y860758D01*
X394940Y858823D01*
X397310Y857456D01*
X399952Y856748D01*
X400050D01*
Y865867D01*
D02*
G37*
G36*
X558800Y823438D02*
Y815270D01*
X566968D01*
X566331Y817646D01*
X565088Y819799D01*
X563329Y821558D01*
X561176Y822801D01*
X558800Y823438D01*
D02*
G37*
G36*
X556260D02*
X553884Y822801D01*
X551731Y821558D01*
X549972Y819799D01*
X548729Y817646D01*
X548092Y815270D01*
X556260D01*
Y823438D01*
D02*
G37*
G36*
X566968Y812730D02*
X558800D01*
Y804562D01*
X561176Y805199D01*
X563329Y806442D01*
X565088Y808201D01*
X566331Y810354D01*
X566968Y812730D01*
D02*
G37*
G36*
X556260D02*
X548092D01*
X548729Y810354D01*
X549972Y808201D01*
X551731Y806442D01*
X553884Y805199D01*
X556260Y804562D01*
Y812730D01*
D02*
G37*
G36*
X558640Y796429D02*
X556420D01*
X554277Y795855D01*
X552355Y794745D01*
X550785Y793176D01*
X549675Y791254D01*
X549101Y789110D01*
Y786890D01*
X549675Y784746D01*
X550785Y782824D01*
X552355Y781255D01*
X554277Y780145D01*
X556420Y779571D01*
X558640D01*
X560784Y780145D01*
X562705Y781255D01*
X564275Y782824D01*
X565385Y784746D01*
X565959Y786890D01*
Y789110D01*
X565385Y791254D01*
X564275Y793176D01*
X562705Y794745D01*
X560784Y795855D01*
X558640Y796429D01*
D02*
G37*
G36*
X463317Y1042924D02*
X461243D01*
X459241Y1042387D01*
X457445Y1041351D01*
X455979Y1039885D01*
X454943Y1038089D01*
X454406Y1036087D01*
Y1034013D01*
X454943Y1032011D01*
X455979Y1030215D01*
X456392Y1029803D01*
X456407Y1029690D01*
X459431Y1024454D01*
Y966380D01*
X425976Y932924D01*
X425358Y932000D01*
X425141Y930910D01*
X425141Y930910D01*
Y796727D01*
X422117Y791490D01*
X422102Y791377D01*
X421689Y790965D01*
X420653Y789169D01*
X420116Y787167D01*
Y785093D01*
X420653Y783091D01*
X421689Y781295D01*
X423155Y779829D01*
X424951Y778793D01*
X426953Y778256D01*
X429027D01*
X431029Y778793D01*
X432825Y779829D01*
X434291Y781295D01*
X435327Y783091D01*
X435864Y785093D01*
Y787167D01*
X435327Y789169D01*
X434291Y790965D01*
X433878Y791377D01*
X433863Y791490D01*
X430839Y796727D01*
Y929730D01*
X464294Y963186D01*
X464294Y963186D01*
X464912Y964110D01*
X465129Y965200D01*
Y1024454D01*
X468153Y1029690D01*
X468168Y1029803D01*
X468581Y1030215D01*
X469617Y1032011D01*
X470154Y1034013D01*
Y1036087D01*
X469617Y1038089D01*
X468581Y1039885D01*
X467115Y1041351D01*
X465319Y1042387D01*
X463317Y1042924D01*
D02*
G37*
G36*
X864834Y933934D02*
X862366D01*
X859982Y933295D01*
X857844Y932061D01*
X856099Y930316D01*
X854865Y928178D01*
X854226Y925794D01*
Y923326D01*
X854865Y920942D01*
X856099Y918804D01*
X856679Y918224D01*
X856701Y918088D01*
X860751Y911521D01*
Y490046D01*
X858211Y489366D01*
X857571Y490474D01*
X855844Y492201D01*
X853730Y493422D01*
X851371Y494054D01*
X848929D01*
X846570Y493422D01*
X844456Y492201D01*
X842729Y490474D01*
X841508Y488360D01*
X840876Y486001D01*
Y483559D01*
X841508Y481200D01*
X842729Y479086D01*
X844456Y477359D01*
X846570Y476138D01*
X848929Y475506D01*
X851371D01*
X853730Y476138D01*
X855844Y477359D01*
X857571Y479086D01*
X858211Y480195D01*
X860751Y479514D01*
Y455680D01*
X856436Y451365D01*
X848850Y449065D01*
X848792Y449017D01*
X846570Y448422D01*
X844456Y447201D01*
X842729Y445474D01*
X841508Y443360D01*
X840876Y441001D01*
Y438559D01*
X841508Y436200D01*
X842729Y434086D01*
X844456Y432359D01*
X846570Y431138D01*
X848929Y430506D01*
X851371D01*
X853730Y431138D01*
X855844Y432359D01*
X857571Y434086D01*
X858792Y436200D01*
X859424Y438559D01*
Y440406D01*
X859463Y440466D01*
X860730Y447601D01*
X865614Y452486D01*
X865614Y452486D01*
X866232Y453410D01*
X866449Y454500D01*
X866449Y454500D01*
Y911521D01*
X870499Y918088D01*
X870521Y918224D01*
X871101Y918804D01*
X872335Y920942D01*
X872974Y923326D01*
Y925794D01*
X872335Y928178D01*
X871101Y930316D01*
X869356Y932061D01*
X867218Y933295D01*
X864834Y933934D01*
D02*
G37*
G36*
X906036Y1092529D02*
X904109D01*
X902247Y1092030D01*
X900579Y1091067D01*
X899216Y1089704D01*
X898252Y1088035D01*
X897754Y1086174D01*
Y1084247D01*
X898252Y1082385D01*
X898962Y1081156D01*
X898969Y1080999D01*
X901391Y1075815D01*
Y1054100D01*
X901391Y1054100D01*
X901608Y1053010D01*
X902226Y1052086D01*
X950921Y1003390D01*
Y599087D01*
X913136Y561301D01*
X912518Y560377D01*
X912301Y559287D01*
X912301Y559286D01*
Y497657D01*
X908320Y491178D01*
X908298Y491044D01*
X907729Y490474D01*
X906508Y488360D01*
X905876Y486001D01*
Y483559D01*
X906508Y481200D01*
X907729Y479086D01*
X909456Y477359D01*
X911570Y476138D01*
X913929Y475506D01*
X916371D01*
X918730Y476138D01*
X920844Y477359D01*
X922571Y479086D01*
X923792Y481200D01*
X924424Y483559D01*
Y486001D01*
X923792Y488360D01*
X922571Y490474D01*
X922002Y491044D01*
X921980Y491178D01*
X917999Y497657D01*
Y558107D01*
X955784Y595892D01*
X955784Y595892D01*
X956402Y596816D01*
X956619Y597907D01*
X956619Y597907D01*
Y1004570D01*
X956402Y1005660D01*
X955784Y1006584D01*
X955784Y1006584D01*
X907089Y1055280D01*
Y1075356D01*
X909874Y1079631D01*
X909881Y1079668D01*
X910929Y1080716D01*
X911893Y1082385D01*
X912392Y1084247D01*
Y1086174D01*
X911893Y1088035D01*
X910929Y1089704D01*
X909566Y1091067D01*
X907897Y1092030D01*
X906036Y1092529D01*
D02*
G37*
G36*
X924424Y449054D02*
X905876D01*
Y430506D01*
X924424D01*
Y449054D01*
D02*
G37*
%LPD*%
G36*
X594538Y1082670D02*
X591968Y1083940D01*
Y1086480D01*
X594538Y1087750D01*
Y1082670D01*
D02*
G37*
G36*
X409140Y1001957D02*
X405360Y1001926D01*
X406630Y1004497D01*
X409170D01*
X409140Y1001957D01*
D02*
G37*
G36*
X701815Y1079415D02*
X696314Y1077855D01*
X694518Y1079651D01*
X696078Y1085152D01*
X701815Y1079415D01*
D02*
G37*
G36*
X644908Y1041762D02*
X640080Y1045210D01*
X640610Y1047750D01*
X646686Y1050472D01*
X644908Y1041762D01*
D02*
G37*
G36*
X660272Y1046480D02*
Y1043940D01*
X654775Y1040765D01*
Y1049655D01*
X660272Y1046480D01*
D02*
G37*
G36*
X516255Y1033235D02*
X507365D01*
X510540Y1038732D01*
X513080D01*
X516255Y1033235D01*
D02*
G37*
G36*
X634872Y1029970D02*
Y1027430D01*
X629375Y1024255D01*
Y1033145D01*
X634872Y1029970D01*
D02*
G37*
G36*
X620305Y1024255D02*
X614808Y1027430D01*
Y1029970D01*
X620305Y1033145D01*
Y1024255D01*
D02*
G37*
G36*
X869407Y1023696D02*
X864230Y1027430D01*
X864726Y1029970D01*
X871185Y1032978D01*
X869407Y1023696D01*
D02*
G37*
G36*
X498315Y1022350D02*
X498659Y1019810D01*
X493594Y1016435D01*
X492426Y1025248D01*
X498315Y1022350D01*
D02*
G37*
G36*
X514570Y1112520D02*
Y1109980D01*
X511999Y1108710D01*
Y1113790D01*
X514570Y1112520D01*
D02*
G37*
G36*
X1032446Y1046580D02*
X1026060Y1040194D01*
X1024404Y1046440D01*
X1026200Y1048236D01*
X1032446Y1046580D01*
D02*
G37*
G36*
X931742Y1076079D02*
X929202D01*
X926416Y1081072D01*
X934529D01*
X931742Y1076079D01*
D02*
G37*
G36*
X1032446Y970380D02*
X1026060Y963995D01*
X1024404Y970240D01*
X1026200Y972036D01*
X1032446Y970380D01*
D02*
G37*
G36*
X554990Y970408D02*
X552450D01*
X549275Y975905D01*
X558165D01*
X554990Y970408D01*
D02*
G37*
G36*
X547742Y858674D02*
X545946Y856879D01*
X539813Y858520D01*
X546100Y864807D01*
X547742Y858674D01*
D02*
G37*
G36*
X583132Y854710D02*
Y852170D01*
X577635Y848995D01*
Y857885D01*
X583132Y854710D01*
D02*
G37*
G36*
X448310Y773558D02*
X445770D01*
X442595Y779055D01*
X451485D01*
X448310Y773558D01*
D02*
G37*
G36*
X671088Y755126D02*
X667495Y753329D01*
X665699Y755126D01*
X667495Y758718D01*
X671088Y755126D01*
D02*
G37*
G36*
X617220Y752586D02*
X614680D01*
X613410Y755126D01*
X618490D01*
X617220Y752586D01*
D02*
G37*
G36*
X557530D02*
X554990D01*
X553720Y755126D01*
X558800D01*
X557530Y752586D01*
D02*
G37*
G36*
X524510Y678308D02*
X521970D01*
X518795Y683805D01*
X527685D01*
X524510Y678308D01*
D02*
G37*
G36*
X609497Y775271D02*
X609497Y775271D01*
X610421Y774653D01*
X611512Y774436D01*
X611512Y774436D01*
X618683D01*
X620344Y772776D01*
X619372Y770429D01*
X607521D01*
Y753571D01*
X612343D01*
X613101Y752054D01*
Y586033D01*
X580455D01*
X579093Y586768D01*
X578374Y589010D01*
X578374D01*
Y602758D01*
X564626D01*
Y589010D01*
X564626Y589010D01*
X565460Y586470D01*
X565094Y585837D01*
X564626Y584089D01*
Y582279D01*
X565094Y580531D01*
X565999Y578963D01*
X566497Y578466D01*
X567011Y576834D01*
X566497Y575202D01*
X565999Y574705D01*
X565094Y573137D01*
X564626Y571389D01*
Y569579D01*
X565094Y567831D01*
X565999Y566263D01*
X566497Y565766D01*
X567011Y564134D01*
X566497Y562502D01*
X565999Y562005D01*
X565094Y560437D01*
X564626Y558689D01*
Y556879D01*
X565094Y555131D01*
X565999Y553563D01*
X567279Y552283D01*
X568847Y551379D01*
X570595Y550910D01*
X572405D01*
X574153Y551379D01*
X575721Y552283D01*
X577001Y553563D01*
X577906Y555131D01*
X578374Y556879D01*
Y558689D01*
X577906Y560437D01*
X577001Y562005D01*
X576503Y562502D01*
X575989Y564134D01*
X576503Y565766D01*
X577001Y566263D01*
X577906Y567831D01*
X578374Y569579D01*
Y571389D01*
X577906Y573137D01*
X577001Y574705D01*
X576503Y575202D01*
X576207Y576141D01*
X576196Y576338D01*
X576391Y577528D01*
X576739Y578330D01*
X580455Y580335D01*
X613101D01*
Y496054D01*
X611386Y494339D01*
X577915D01*
X576553Y495074D01*
X575834Y497316D01*
X575834D01*
Y511064D01*
X562086D01*
Y497316D01*
X562086Y497316D01*
X562920Y494776D01*
X562555Y494143D01*
X562086Y492395D01*
Y490585D01*
X562555Y488837D01*
X563459Y487269D01*
X563957Y486772D01*
X564471Y485140D01*
X563957Y483508D01*
X563459Y483011D01*
X562555Y481443D01*
X562220Y480196D01*
X560747Y479476D01*
X559546Y479279D01*
X526089Y512736D01*
Y677744D01*
X529113Y682980D01*
X529128Y683093D01*
X529541Y683505D01*
X530577Y685301D01*
X531114Y687303D01*
Y689377D01*
X530577Y691379D01*
X529541Y693175D01*
X528075Y694641D01*
X526279Y695677D01*
X524277Y696214D01*
X522203D01*
X520201Y695677D01*
X519494Y695270D01*
X516892Y696524D01*
X516690Y698081D01*
X567581Y748972D01*
X568027Y749271D01*
X570259Y751502D01*
X570259Y751503D01*
X570558Y751949D01*
X582404Y763796D01*
X582404Y763796D01*
X583022Y764720D01*
X583239Y765810D01*
X583239Y765810D01*
Y797937D01*
X585779Y798989D01*
X609497Y775271D01*
D02*
G37*
G36*
X579907Y584454D02*
Y581914D01*
X575321Y579439D01*
Y586929D01*
X579907Y584454D01*
D02*
G37*
G36*
X473227D02*
Y581914D01*
X468641Y579439D01*
Y586929D01*
X473227Y584454D01*
D02*
G37*
G36*
X504190Y583184D02*
X501650Y579374D01*
X499110Y581914D01*
Y584454D01*
X501650Y586994D01*
X504190Y583184D01*
D02*
G37*
G36*
X676899Y579185D02*
X672313Y581660D01*
Y584200D01*
X676899Y586675D01*
Y579185D01*
D02*
G37*
G36*
X464587Y575829D02*
X459472Y570358D01*
X457884Y575370D01*
X459618Y577228D01*
X464587Y575829D01*
D02*
G37*
G36*
X708351Y817970D02*
Y426630D01*
X697320Y415599D01*
X689108D01*
X687594Y416347D01*
Y419624D01*
X673846D01*
Y405876D01*
X671892Y404460D01*
X661289D01*
X653069Y412680D01*
Y486926D01*
X654784Y488641D01*
X671765D01*
X675481Y486636D01*
X675829Y485834D01*
X676024Y484644D01*
X676013Y484447D01*
X675717Y483508D01*
X675219Y483011D01*
X674314Y481443D01*
X673846Y479695D01*
Y477885D01*
X674314Y476137D01*
X675219Y474569D01*
X675717Y474072D01*
X676231Y472440D01*
X675717Y470808D01*
X675219Y470311D01*
X674314Y468743D01*
X673846Y466995D01*
Y465185D01*
X674314Y463437D01*
X675219Y461869D01*
X676499Y460589D01*
X678067Y459684D01*
X679815Y459216D01*
X681625D01*
X683373Y459684D01*
X684941Y460589D01*
X686221Y461869D01*
X687125Y463437D01*
X687594Y465185D01*
Y466995D01*
X687125Y468743D01*
X686221Y470311D01*
X685723Y470808D01*
X685209Y472440D01*
X685723Y474072D01*
X686221Y474569D01*
X687125Y476137D01*
X687594Y477885D01*
Y479695D01*
X687125Y481443D01*
X686221Y483011D01*
X685723Y483508D01*
X685209Y485140D01*
X685723Y486772D01*
X686221Y487269D01*
X687125Y488837D01*
X687594Y490585D01*
Y492395D01*
X687125Y494143D01*
X686760Y494776D01*
X687594Y497316D01*
X687594D01*
Y511064D01*
X673846D01*
Y497316D01*
X673846D01*
X673127Y495074D01*
X671765Y494339D01*
X654784D01*
X653069Y496054D01*
Y580038D01*
X653112Y580081D01*
X671765D01*
X675481Y578076D01*
X675829Y577274D01*
X676024Y576084D01*
X676013Y575887D01*
X675717Y574948D01*
X675219Y574451D01*
X674314Y572883D01*
X673846Y571135D01*
Y569325D01*
X674314Y567577D01*
X675219Y566009D01*
X675717Y565512D01*
X676231Y563880D01*
X675717Y562248D01*
X675219Y561751D01*
X674314Y560183D01*
X673846Y558435D01*
Y556625D01*
X674314Y554877D01*
X675219Y553309D01*
X676499Y552029D01*
X678067Y551124D01*
X679815Y550656D01*
X681625D01*
X683373Y551124D01*
X684941Y552029D01*
X686221Y553309D01*
X687125Y554877D01*
X687594Y556625D01*
Y558435D01*
X687125Y560183D01*
X686221Y561751D01*
X685723Y562248D01*
X685209Y563880D01*
X685723Y565512D01*
X686221Y566009D01*
X687125Y567577D01*
X687594Y569325D01*
Y571135D01*
X687125Y572883D01*
X686221Y574451D01*
X685723Y574948D01*
X685209Y576580D01*
X685723Y578212D01*
X686221Y578709D01*
X687125Y580277D01*
X687594Y582025D01*
Y583835D01*
X687125Y585583D01*
X686760Y586216D01*
X687594Y588756D01*
X687594D01*
Y602504D01*
X673846D01*
Y588756D01*
X673846D01*
X673127Y586514D01*
X671765Y585779D01*
X653069D01*
Y736670D01*
X668272Y751873D01*
X671667Y753571D01*
X682799D01*
Y770429D01*
X665941D01*
Y759297D01*
X664243Y755902D01*
X648206Y739864D01*
X647588Y738940D01*
X647371Y737850D01*
X647371Y737850D01*
Y581218D01*
X647371Y581218D01*
X647371Y581218D01*
Y491871D01*
X647333Y491814D01*
X647371Y491617D01*
Y491363D01*
X647333Y491166D01*
X647371Y491109D01*
Y411500D01*
X647371Y411500D01*
X647588Y410410D01*
X648206Y409486D01*
X658094Y399597D01*
X658094Y399597D01*
X659018Y398979D01*
X660109Y398763D01*
X660109Y398763D01*
X671535D01*
X674959Y396281D01*
X675219Y395829D01*
X675717Y395332D01*
X675979Y394500D01*
X676018Y394161D01*
X675829Y393006D01*
X675481Y392204D01*
X671765Y390199D01*
X659040D01*
X640389Y408850D01*
Y759608D01*
X640389Y759608D01*
X640172Y760698D01*
X639554Y761623D01*
X639554Y761623D01*
X622222Y778955D01*
X621890Y779651D01*
X621976Y782106D01*
X622695Y782824D01*
X623805Y784746D01*
X624379Y786890D01*
Y789110D01*
X623805Y791254D01*
X622695Y793176D01*
X621125Y794745D01*
X619203Y795855D01*
X617060Y796429D01*
X614840D01*
X612696Y795855D01*
X610774Y794745D01*
X609205Y793176D01*
X608095Y791254D01*
X607521Y789110D01*
Y788896D01*
X604981Y787844D01*
X589589Y803237D01*
Y825064D01*
X589589Y825064D01*
X589372Y826154D01*
X588754Y827079D01*
X588754Y827079D01*
X572807Y843026D01*
X573859Y845566D01*
X574137D01*
X576139Y846103D01*
X577935Y847139D01*
X578347Y847552D01*
X578460Y847567D01*
X583697Y850591D01*
X675730D01*
X708351Y817970D01*
D02*
G37*
G36*
X473227Y492887D02*
Y490347D01*
X468641Y487872D01*
Y495362D01*
X473227Y492887D01*
D02*
G37*
G36*
X504190Y491617D02*
X501650Y487807D01*
X499110Y490347D01*
Y492887D01*
X501650Y495427D01*
X504190Y491617D01*
D02*
G37*
G36*
X676899Y487745D02*
X672313Y490220D01*
Y492760D01*
X676899Y495235D01*
Y487745D01*
D02*
G37*
G36*
X577367Y492760D02*
Y490220D01*
X572781Y487745D01*
Y495235D01*
X577367Y492760D01*
D02*
G37*
G36*
X654030D02*
Y490220D01*
X651490Y487680D01*
X648950Y491490D01*
X651490Y495300D01*
X654030Y492760D01*
D02*
G37*
G36*
X617220Y491490D02*
X614680Y487680D01*
X612140Y490220D01*
Y492760D01*
X614680Y495300D01*
X617220Y491490D01*
D02*
G37*
G36*
X568727Y471435D02*
X563611Y465964D01*
X562024Y470976D01*
X563758Y472834D01*
X568727Y471435D01*
D02*
G37*
G36*
X688579Y414020D02*
Y411480D01*
X686009Y410210D01*
Y415290D01*
X688579Y414020D01*
D02*
G37*
G36*
X520391Y677744D02*
Y511556D01*
X520391Y511556D01*
X520608Y510466D01*
X521226Y509541D01*
X560526Y470241D01*
X562039Y465466D01*
X562086Y465410D01*
Y465185D01*
X562555Y463437D01*
X563459Y461869D01*
X564739Y460589D01*
X566307Y459684D01*
X568055Y459216D01*
X569865D01*
X571613Y459684D01*
X573181Y460589D01*
X574461Y461869D01*
X575365Y463437D01*
X575834Y465185D01*
Y466995D01*
X575365Y468743D01*
X574461Y470311D01*
X573963Y470808D01*
X573449Y472440D01*
X573963Y474072D01*
X574461Y474569D01*
X575365Y476137D01*
X575834Y477885D01*
Y479695D01*
X575365Y481443D01*
X574461Y483011D01*
X573963Y483508D01*
X573667Y484447D01*
X573656Y484644D01*
X573851Y485834D01*
X574199Y486636D01*
X577915Y488641D01*
X611386D01*
X613101Y486926D01*
Y420280D01*
X595720Y402899D01*
X577915D01*
X576553Y403634D01*
X575834Y405876D01*
X575834D01*
Y419624D01*
X562086D01*
Y405876D01*
X562086Y405876D01*
X562920Y403336D01*
X562555Y402703D01*
X562086Y400955D01*
Y399145D01*
X562555Y397397D01*
X563459Y395829D01*
X563957Y395332D01*
X564471Y393700D01*
X563957Y392068D01*
X563459Y391571D01*
X562555Y390003D01*
X562086Y388255D01*
Y386445D01*
X562555Y384697D01*
X563459Y383129D01*
X563957Y382632D01*
X564219Y381800D01*
X564258Y381461D01*
X564069Y380306D01*
X563721Y379504D01*
X560005Y377499D01*
X530770D01*
X515929Y392340D01*
Y680391D01*
X518469Y681072D01*
X520391Y677744D01*
D02*
G37*
G36*
X675973Y397583D02*
X672168Y400341D01*
X672971Y402881D01*
X678159Y404747D01*
X675973Y397583D01*
D02*
G37*
G36*
X577367Y401320D02*
Y398780D01*
X572781Y396305D01*
Y403795D01*
X577367Y401320D01*
D02*
G37*
G36*
X473227D02*
Y398780D01*
X468641Y396305D01*
Y403795D01*
X473227Y401320D01*
D02*
G37*
G36*
X676899Y383605D02*
X672313Y386080D01*
Y388620D01*
X676899Y391095D01*
Y383605D01*
D02*
G37*
G36*
X565139Y370905D02*
X560553Y373380D01*
Y375920D01*
X565139Y378395D01*
Y370905D01*
D02*
G37*
%LPC*%
G36*
X675640Y823438D02*
Y815270D01*
X683808D01*
X683171Y817646D01*
X681928Y819799D01*
X680169Y821558D01*
X678016Y822801D01*
X675640Y823438D01*
D02*
G37*
G36*
X617220D02*
Y815270D01*
X625388D01*
X624751Y817646D01*
X623508Y819799D01*
X621749Y821558D01*
X619596Y822801D01*
X617220Y823438D01*
D02*
G37*
G36*
X673100D02*
X670724Y822801D01*
X668571Y821558D01*
X666812Y819799D01*
X665569Y817646D01*
X664932Y815270D01*
X673100D01*
Y823438D01*
D02*
G37*
G36*
X614680D02*
X612304Y822801D01*
X610151Y821558D01*
X608392Y819799D01*
X607149Y817646D01*
X606512Y815270D01*
X614680D01*
Y823438D01*
D02*
G37*
G36*
X683808Y812730D02*
X675640D01*
Y804562D01*
X678016Y805199D01*
X680169Y806442D01*
X681928Y808201D01*
X683171Y810354D01*
X683808Y812730D01*
D02*
G37*
G36*
X625388D02*
X617220D01*
Y804562D01*
X619596Y805199D01*
X621749Y806442D01*
X623508Y808201D01*
X624751Y810354D01*
X625388Y812730D01*
D02*
G37*
G36*
X673100D02*
X664932D01*
X665569Y810354D01*
X666812Y808201D01*
X668571Y806442D01*
X670724Y805199D01*
X673100Y804562D01*
Y812730D01*
D02*
G37*
G36*
X614680D02*
X606512D01*
X607149Y810354D01*
X608392Y808201D01*
X610151Y806442D01*
X612304Y805199D01*
X614680Y804562D01*
Y812730D01*
D02*
G37*
G36*
X675480Y796429D02*
X673260D01*
X671116Y795855D01*
X669194Y794745D01*
X667625Y793176D01*
X666515Y791254D01*
X665941Y789110D01*
Y786890D01*
X666515Y784746D01*
X667625Y782824D01*
X669194Y781255D01*
X671116Y780145D01*
X673260Y779571D01*
X675480D01*
X677624Y780145D01*
X679546Y781255D01*
X681115Y782824D01*
X682225Y784746D01*
X682799Y786890D01*
Y789110D01*
X682225Y791254D01*
X681115Y793176D01*
X679546Y794745D01*
X677624Y795855D01*
X675480Y796429D01*
D02*
G37*
%LPD*%
G36*
X463550Y1025018D02*
X461010D01*
X457835Y1030515D01*
X466725D01*
X463550Y1025018D01*
D02*
G37*
G36*
X432435Y790665D02*
X423545D01*
X426720Y796162D01*
X429260D01*
X432435Y790665D01*
D02*
G37*
G36*
X864870Y912103D02*
X862330D01*
X858105Y918954D01*
X869095D01*
X864870Y912103D01*
D02*
G37*
G36*
X859175Y448279D02*
X857838Y440755D01*
X849329Y447486D01*
X857166Y449862D01*
X859175Y448279D01*
D02*
G37*
G36*
X908492Y1080532D02*
X905510Y1075955D01*
X902970Y1076333D01*
X900464Y1081697D01*
X908492Y1080532D01*
D02*
G37*
G36*
X920575Y490315D02*
X909725D01*
X913880Y497075D01*
X916420D01*
X920575Y490315D01*
D02*
G37*
D15*
X953770Y597907D02*
Y1004570D01*
X915150Y559287D02*
X953770Y597907D01*
X850150Y441050D02*
X863600Y454500D01*
Y924560D01*
X915150Y484780D02*
Y559287D01*
X904240Y1084378D02*
X905072Y1085210D01*
X904240Y1054100D02*
Y1084378D01*
Y1054100D02*
X953770Y1004570D01*
X624840Y1028700D02*
X873760D01*
X875030Y1027430D01*
X513080Y391160D02*
X529590Y374650D01*
X513080Y698500D02*
X565865Y751285D01*
X523240Y511556D02*
Y688340D01*
X513080Y391160D02*
Y698500D01*
X523240Y511556D02*
X568706Y466090D01*
X637540Y407670D02*
Y759608D01*
Y407670D02*
X657860Y387350D01*
X680720D01*
X650220Y411500D02*
X660109Y401611D01*
X650220Y411500D02*
Y491490D01*
X660109Y401611D02*
X679159D01*
X580390Y765810D02*
Y824230D01*
X566013Y751285D02*
X568245Y753517D01*
Y753665D02*
X580390Y765810D01*
X565865Y751285D02*
X566013D01*
X568245Y753517D02*
Y753665D01*
X556260Y751840D02*
Y760730D01*
X557530Y762000D01*
X502920Y698500D02*
X556260Y751840D01*
X502920Y583184D02*
Y698500D01*
X573100Y853440D02*
X676910D01*
X586740Y802057D02*
Y825064D01*
Y802057D02*
X611512Y777285D01*
X553720Y858084D02*
X586740Y825064D01*
X611512Y777285D02*
X619863D01*
X676910Y853440D02*
X711200Y819150D01*
X619863Y777285D02*
X637540Y759608D01*
X553720Y858084D02*
Y980440D01*
X529590Y374650D02*
X568960D01*
X488069Y400050D02*
X502920Y414901D01*
X464820Y400050D02*
X488069D01*
X502920Y414901D02*
Y491617D01*
X464820D02*
X502920D01*
Y583184D01*
X464820D02*
X502920D01*
X698500Y412750D02*
X711200Y425450D01*
Y819150D01*
X680720Y412750D02*
X698500D01*
X650220Y581218D02*
Y737850D01*
X674370Y762000D01*
X650220Y581218D02*
X651932Y582930D01*
X680720D01*
X650220Y491490D02*
Y581218D01*
Y491490D02*
X680720D01*
X679159Y401611D02*
X680720Y400050D01*
X596900D02*
X615950Y419100D01*
X568960Y400050D02*
X596900D01*
X615950Y491490D02*
Y583184D01*
Y584200D01*
Y419100D02*
Y491490D01*
Y584200D02*
Y762000D01*
X614934Y583184D02*
X615950Y584200D01*
X571500Y583184D02*
X614934D01*
X568960Y491490D02*
X615950D01*
X539750Y864870D02*
X580390Y824230D01*
X447040Y588010D02*
X464566Y570484D01*
X447040Y588010D02*
Y783590D01*
X427990Y786130D02*
Y930910D01*
X568706Y466090D02*
X568960D01*
X464566Y570484D02*
X464820D01*
X489348Y1021080D02*
X504295D01*
X488514Y1020246D02*
X489348Y1021080D01*
X504295D02*
X509375Y1016000D01*
X523240D01*
X535940Y1028700D01*
X624840D01*
X930472Y1065967D02*
X1032510Y963930D01*
X930472Y1065967D02*
Y1085210D01*
X505060Y1111250D02*
X961390D01*
X1032510Y1040130D01*
X648970Y1046480D02*
X650240Y1045210D01*
X661872D02*
X701872Y1085210D01*
X518160Y1046480D02*
X648970D01*
X650240Y1045210D02*
X661872D01*
X407900Y1013690D02*
X479420Y1085210D01*
X600272D01*
X407900Y1000717D02*
Y1013690D01*
X401320Y994137D02*
X407900Y1000717D01*
X511810Y1028700D02*
Y1040130D01*
X518160Y1046480D01*
X427990Y930910D02*
X462280Y965200D01*
Y1035050D01*
D17*
X915150Y439780D02*
D03*
D18*
X850150D02*
D03*
X915150Y484780D02*
D03*
X850150D02*
D03*
D19*
X875030Y1027430D02*
D03*
X900430Y1002030D02*
D03*
D20*
X875030Y976630D02*
D03*
D21*
X615950Y814000D02*
D03*
Y788000D02*
D03*
X674370Y814000D02*
D03*
Y788000D02*
D03*
X557530Y814000D02*
D03*
Y788000D02*
D03*
D22*
X615950Y762000D02*
D03*
X674370D02*
D03*
X557530D02*
D03*
D23*
X568960Y466090D02*
D03*
Y478790D02*
D03*
Y491490D02*
D03*
Y374650D02*
D03*
Y387350D02*
D03*
Y400050D02*
D03*
X464820Y374650D02*
D03*
Y387350D02*
D03*
Y400050D02*
D03*
Y466217D02*
D03*
Y478917D02*
D03*
Y491617D02*
D03*
Y557784D02*
D03*
Y570484D02*
D03*
Y583184D02*
D03*
X571500Y557784D02*
D03*
Y570484D02*
D03*
Y583184D02*
D03*
X680720Y466090D02*
D03*
Y478790D02*
D03*
Y491490D02*
D03*
Y557530D02*
D03*
Y570230D02*
D03*
Y582930D02*
D03*
Y374650D02*
D03*
Y387350D02*
D03*
Y400050D02*
D03*
D24*
X568960Y504190D02*
D03*
Y412750D02*
D03*
X464820D02*
D03*
Y504317D02*
D03*
Y595884D02*
D03*
X571500D02*
D03*
X680720Y504190D02*
D03*
Y595630D02*
D03*
Y412750D02*
D03*
D25*
X455060Y1111250D02*
D03*
D26*
X505060D02*
D03*
D27*
X863600Y924560D02*
D03*
X889000D02*
D03*
X401320Y867138D02*
D03*
Y892538D02*
D03*
Y917937D02*
D03*
Y943337D02*
D03*
Y968737D02*
D03*
D28*
X914400Y924560D02*
D03*
D29*
X1007110Y1040130D02*
D03*
X1032510D02*
D03*
Y963930D02*
D03*
D30*
X1007110D02*
D03*
D31*
X788487Y985520D02*
D03*
X812337Y935990D02*
D03*
X763070D02*
D03*
D32*
X739687Y985520D02*
D03*
X787337Y935990D02*
D03*
X738070D02*
D03*
D33*
X401320Y994137D02*
D03*
D34*
X600272Y1085210D02*
D03*
D35*
X625672D02*
D03*
X651072D02*
D03*
X676472D02*
D03*
X701872D02*
D03*
X727272D02*
D03*
X752673D02*
D03*
X778073D02*
D03*
X803473D02*
D03*
X828873D02*
D03*
X854273D02*
D03*
X879672D02*
D03*
X905072D02*
D03*
X930472D02*
D03*
Y1164590D02*
D03*
X905072D02*
D03*
X879672D02*
D03*
X854273D02*
D03*
X828873D02*
D03*
X803473D02*
D03*
X778073D02*
D03*
X752673D02*
D03*
X727272D02*
D03*
X701872D02*
D03*
X676472D02*
D03*
X651072D02*
D03*
X625672D02*
D03*
X600272D02*
D03*
D36*
X523240Y688340D02*
D03*
X573100Y853440D02*
D03*
X447040Y783590D02*
D03*
X427990Y786130D02*
D03*
X488514Y1020246D02*
D03*
X553720Y980440D02*
D03*
X539750Y864870D02*
D03*
X650240Y1045210D02*
D03*
X511810Y1028700D02*
D03*
X462280Y1035050D02*
D03*
X624840Y1028700D02*
D03*
%TF.MD5,17c185a3bc1c1cca0925170a68342b69*%
M02*
