%TF.GenerationSoftware,Altium Limited,Altium Designer,24.6.1 (21)*%
G04 Layer_Color=255*
%FSLAX44Y44*%
%MOMM*%
%TF.SameCoordinates,BF409B1A-1CF9-43DC-8BE1-D3214C2D7C54*%
%TF.FilePolarity,Positive*%
%TF.FileFunction,Pads,Bot*%
%TF.Part,Single*%
G01*
G75*
%TA.AperFunction,ComponentPad*%
%ADD17R,1.5500X1.5500*%
%ADD18C,1.5500*%
%ADD19C,1.3500*%
%ADD20R,1.3500X1.3500*%
%ADD21C,1.3810*%
%ADD22R,1.3810X1.3810*%
%ADD23C,1.0700*%
%ADD24R,1.0700X1.0700*%
%ADD25C,1.4000*%
%ADD26R,1.4000X1.4000*%
%ADD27C,1.5700*%
%ADD28R,1.5700X1.5700*%
%ADD29C,1.2900*%
%ADD30R,1.2900X1.2900*%
%ADD31C,1.2000*%
%ADD32R,1.2000X1.2000*%
%ADD33R,1.5700X1.5700*%
%ADD34R,1.1590X1.1590*%
%ADD35C,1.1590*%
D17*
X915150Y439780D02*
D03*
D18*
X850150D02*
D03*
X915150Y484780D02*
D03*
X850150D02*
D03*
D19*
X875030Y1027430D02*
D03*
X900430Y1002030D02*
D03*
D20*
X875030Y976630D02*
D03*
D21*
X615950Y814000D02*
D03*
Y788000D02*
D03*
X674370Y814000D02*
D03*
Y788000D02*
D03*
X557530Y814000D02*
D03*
Y788000D02*
D03*
D22*
X615950Y762000D02*
D03*
X674370D02*
D03*
X557530D02*
D03*
D23*
X568960Y466090D02*
D03*
Y478790D02*
D03*
Y491490D02*
D03*
Y374650D02*
D03*
Y387350D02*
D03*
Y400050D02*
D03*
X464820Y374650D02*
D03*
Y387350D02*
D03*
Y400050D02*
D03*
Y466217D02*
D03*
Y478917D02*
D03*
Y491617D02*
D03*
Y557784D02*
D03*
Y570484D02*
D03*
Y583184D02*
D03*
X571500Y557784D02*
D03*
Y570484D02*
D03*
Y583184D02*
D03*
X680720Y466090D02*
D03*
Y478790D02*
D03*
Y491490D02*
D03*
Y557530D02*
D03*
Y570230D02*
D03*
Y582930D02*
D03*
Y374650D02*
D03*
Y387350D02*
D03*
Y400050D02*
D03*
D24*
X568960Y504190D02*
D03*
Y412750D02*
D03*
X464820D02*
D03*
Y504317D02*
D03*
Y595884D02*
D03*
X571500D02*
D03*
X680720Y504190D02*
D03*
Y595630D02*
D03*
Y412750D02*
D03*
D25*
X455060Y1111250D02*
D03*
D26*
X505060D02*
D03*
D27*
X863600Y924560D02*
D03*
X889000D02*
D03*
X401320Y867138D02*
D03*
Y892538D02*
D03*
Y917937D02*
D03*
Y943337D02*
D03*
Y968737D02*
D03*
D28*
X914400Y924560D02*
D03*
D29*
X1007110Y1040130D02*
D03*
X1032510D02*
D03*
Y963930D02*
D03*
D30*
X1007110D02*
D03*
D31*
X788487Y985520D02*
D03*
X812337Y935990D02*
D03*
X763070D02*
D03*
D32*
X739687Y985520D02*
D03*
X787337Y935990D02*
D03*
X738070D02*
D03*
D33*
X401320Y994137D02*
D03*
D34*
X600272Y1085210D02*
D03*
D35*
X625672D02*
D03*
X651072D02*
D03*
X676472D02*
D03*
X701872D02*
D03*
X727272D02*
D03*
X752673D02*
D03*
X778073D02*
D03*
X803473D02*
D03*
X828873D02*
D03*
X854273D02*
D03*
X879672D02*
D03*
X905072D02*
D03*
X930472D02*
D03*
Y1164590D02*
D03*
X905072D02*
D03*
X879672D02*
D03*
X854273D02*
D03*
X828873D02*
D03*
X803473D02*
D03*
X778073D02*
D03*
X752673D02*
D03*
X727272D02*
D03*
X701872D02*
D03*
X676472D02*
D03*
X651072D02*
D03*
X625672D02*
D03*
X600272D02*
D03*
%TF.MD5,eb85f0d0ad1ec53ef9fe2173304d84de*%
M02*
