M48
;Layer_Color=9474304
;FILE_FORMAT=4:4
METRIC,LZ
;TYPE=PLATED
T01F00S00C0.7000
T02F00S00C0.7112
T03F00S00C0.7590
T04F00S00C0.7900
T05F00S00C0.8500
T06F00S00C0.8890
T07F00S00C0.9000
T08F00S00C1.0000
T09F00S00C1.0200
%
T01
X0073807Y0093599
X0076307
X00787337
X00788487Y0098552
X00739687
X00812337Y0093599
T02
X0052324Y0068834
X0044704Y0078359
X0042799Y0078613
X0053975Y0086487
X005731Y0085344
X0055372Y0098044
X0051181Y010287
X00488514Y01020246
X0046228Y0103505
X0062484Y010287
X0065024Y0104521
T03
X00600272Y0108521
X00625672
X00651072
X00676472
X00701872
X00727272
X00752673
X00778073
Y0116459
X00752673
X00727272
X00701872
X00676472
X00651072
X00625672
X00600272
X00803473
X00828873
X00854273
X00879672
X00905072
X00930472
Y0108521
X00905072
X00879672
X00854273
X00828873
X00803473
T04
X0100711Y0096393
X0103251
Y0104013
X0100711
T05
X0055753Y00762
Y00788
X0061595
Y00762
X0067437
Y00788
Y00814
X0061595
X0055753
X0087503Y0097663
Y0102743
X0090043Y0100203
T06
X0046482Y0037465
Y0038735
X0056896
Y0037465
X0068072
Y0038735
Y0040005
Y0041275
Y0046609
Y0047879
Y0049149
Y0050419
Y0055753
Y0057023
Y0058293
Y0059563
X005715Y00595884
Y00583184
Y00570484
Y00557784
X0056896Y0050419
Y0049149
Y0047879
Y0046609
Y0041275
Y0040005
X0046482
Y0041275
Y00466217
Y00478917
Y00491617
Y00504317
Y00557784
Y00570484
Y00583184
Y00595884
T07
X0045506Y0111125
X0050506
T08
X0085015Y0043978
Y0048478
X0091515
Y0043978
T09
X0040132Y00867138
Y00892538
Y00917937
Y00943337
Y00968737
Y00994137
X008636Y0092456
X00889
X009144
M30
