%TF.GenerationSoftware,Altium Limited,Altium Designer,24.6.1 (21)*%
G04 Layer_Color=32768*
%FSLAX44Y44*%
%MOMM*%
%TF.SameCoordinates,BF409B1A-1CF9-43DC-8BE1-D3214C2D7C54*%
%TF.FilePolarity,Positive*%
%TF.FileFunction,Other,Mechanical_15*%
%TF.Part,Single*%
G01*
G75*
%TA.AperFunction,NonConductor*%
%ADD38C,0.1000*%
%ADD55C,0.0500*%
D38*
X872630Y1002030D02*
X882630D01*
X877630Y997030D02*
Y1007030D01*
X582170Y745090D02*
X639300D01*
Y830910D01*
X582170D02*
X639300D01*
X582170Y745090D02*
Y830910D01*
X640590Y745090D02*
X697720D01*
Y830910D01*
X640590D02*
X697720D01*
X640590Y745090D02*
Y830910D01*
X523750Y745090D02*
X580880D01*
Y830910D01*
X523750D02*
X580880D01*
X523750Y745090D02*
Y830910D01*
X568960Y480140D02*
Y490140D01*
X563960Y485140D02*
X573960D01*
X568960Y388700D02*
Y398700D01*
X563960Y393700D02*
X573960D01*
X464820Y388700D02*
Y398700D01*
X459820Y393700D02*
X469820D01*
X464820Y480267D02*
Y490267D01*
X459820Y485267D02*
X469820D01*
X464820Y571834D02*
Y581834D01*
X459820Y576834D02*
X469820D01*
X571500Y571834D02*
Y581834D01*
X566500Y576834D02*
X576500D01*
X680720Y480140D02*
Y490140D01*
X675720Y485140D02*
X685720D01*
X680720Y571580D02*
Y581580D01*
X675720Y576580D02*
X685720D01*
X680720Y388700D02*
Y398700D01*
X675720Y393700D02*
X685720D01*
X764087Y980520D02*
Y990520D01*
X759088Y985520D02*
X769087D01*
D55*
X812775Y961270D02*
G03*
X821837Y969529I313J8759D01*
G01*
Y1001520D02*
G03*
X812588Y1009770I-8750J-500D01*
G01*
X715775D02*
G03*
X706525Y1001520I-500J-8750D01*
G01*
Y969529D02*
G03*
X715587Y961270I8750J500D01*
G01*
X802760Y492020D02*
X817760D01*
X802760Y463020D02*
Y492020D01*
Y463020D02*
X817760D01*
Y492020D01*
X829030Y1050630D02*
X926230D01*
X829030Y953430D02*
Y1050630D01*
Y953430D02*
X926230D01*
Y1050630D01*
X538460Y511140D02*
X599460D01*
Y454640D02*
Y511140D01*
X538460Y454640D02*
X599460D01*
X538460D02*
Y511140D01*
Y419700D02*
X599460D01*
Y363200D02*
Y419700D01*
X538460Y363200D02*
X599460D01*
X538460D02*
Y419700D01*
X434320D02*
X495320D01*
Y363200D02*
Y419700D01*
X434320Y363200D02*
X495320D01*
X434320D02*
Y419700D01*
Y511267D02*
X495320D01*
Y454767D02*
Y511267D01*
X434320Y454767D02*
X495320D01*
X434320D02*
Y511267D01*
Y602834D02*
X495320D01*
Y546334D02*
Y602834D01*
X434320Y546334D02*
X495320D01*
X434320D02*
Y602834D01*
X541000D02*
X602000D01*
Y546334D02*
Y602834D01*
X541000Y546334D02*
X602000D01*
X541000D02*
Y602834D01*
X650220Y511140D02*
X711220D01*
Y454640D02*
Y511140D01*
X650220Y454640D02*
X711220D01*
X650220D02*
Y511140D01*
Y602580D02*
X711220D01*
Y546080D02*
Y602580D01*
X650220Y546080D02*
X711220D01*
X650220D02*
Y602580D01*
Y419700D02*
X711220D01*
Y363200D02*
Y419700D01*
X650220Y363200D02*
X711220D01*
X650220D02*
Y419700D01*
X715587Y1009770D02*
X812588D01*
X715587Y961270D02*
X812588D01*
X821837Y969529D02*
Y1001520D01*
X706525Y969529D02*
Y1001520D01*
X577503Y934050D02*
Y1009050D01*
X682503D01*
Y934050D02*
Y1009050D01*
X577503Y934050D02*
X682503D01*
X590430Y889740D02*
Y918740D01*
X575430Y889740D02*
X590430D01*
X575430D02*
Y918740D01*
X590430D01*
X623450Y889740D02*
Y918740D01*
X608450Y889740D02*
X623450D01*
X608450D02*
Y918740D01*
X623450D01*
X440070Y934050D02*
Y1009050D01*
X545070D01*
Y934050D02*
Y1009050D01*
X440070Y934050D02*
X545070D01*
X515216Y889740D02*
Y918740D01*
X500216Y889740D02*
X515216D01*
X500216D02*
Y918740D01*
X515216D01*
X547459Y889740D02*
Y918740D01*
X532459Y889740D02*
X547459D01*
X532459D02*
Y918740D01*
X547459D01*
X531338Y889740D02*
Y918740D01*
X516338Y889740D02*
X531338D01*
X516338D02*
Y918740D01*
X531338D01*
X450730Y889740D02*
Y918740D01*
X435730Y889740D02*
X450730D01*
X435730D02*
Y918740D01*
X450730D01*
X466852Y889740D02*
Y918740D01*
X451852Y889740D02*
X466852D01*
X451852D02*
Y918740D01*
X466852D01*
X482973Y889740D02*
Y918740D01*
X467973Y889740D02*
X482973D01*
X467973D02*
Y918740D01*
X482973D01*
X499095Y889740D02*
Y918740D01*
X484095Y889740D02*
X499095D01*
X484095D02*
Y918740D01*
X499095D01*
X419220Y704320D02*
Y733320D01*
X434220D01*
Y704320D02*
Y733320D01*
X419220Y704320D02*
X434220D01*
X606940Y889740D02*
Y918740D01*
X591940Y889740D02*
X606940D01*
X591940D02*
Y918740D01*
X606940D01*
X585073Y1074060D02*
Y1175740D01*
X945673D01*
Y1074060D02*
Y1175740D01*
X585073Y1074060D02*
X945673D01*
X557650Y987530D02*
Y1016530D01*
X572650D01*
Y987530D02*
Y1016530D01*
X557650Y987530D02*
X572650D01*
%TF.MD5,5695894f75c423c40950c29caaff823c*%
M02*
