%TF.GenerationSoftware,Altium Limited,Altium Designer,24.6.1 (21)*%
G04 Layer_Color=16711935*
%FSLAX44Y44*%
%MOMM*%
%TF.SameCoordinates,BF409B1A-1CF9-43DC-8BE1-D3214C2D7C54*%
%TF.FilePolarity,Negative*%
%TF.FileFunction,Soldermask,Bot*%
%TF.Part,Single*%
G01*
G75*
%TA.AperFunction,ComponentPad*%
%ADD17R,1.5500X1.5500*%
%ADD18C,1.5500*%
%ADD25C,1.4000*%
%ADD26R,1.4000X1.4000*%
%ADD27C,1.5700*%
%ADD28R,1.5700X1.5700*%
%ADD29C,1.2900*%
%ADD30R,1.2900X1.2900*%
%ADD31C,1.2000*%
%ADD32R,1.2000X1.2000*%
%ADD33R,1.5700X1.5700*%
%ADD43C,1.5532*%
%ADD44R,1.5532X1.5532*%
%ADD45C,1.5842*%
%ADD46R,1.5842X1.5842*%
%ADD47C,1.2732*%
%ADD48R,1.2732X1.2732*%
%ADD49C,1.4032*%
%ADD50R,1.4032X1.4032*%
%ADD51R,1.3622X1.3622*%
%ADD52C,1.3622*%
%TA.AperFunction,ViaPad*%
%ADD53C,1.4732*%
D17*
X915150Y439780D02*
D03*
D18*
X850150D02*
D03*
X915150Y484780D02*
D03*
X850150D02*
D03*
D25*
X455060Y1111250D02*
D03*
D26*
X505060D02*
D03*
D27*
X863600Y924560D02*
D03*
X889000D02*
D03*
X401320Y867138D02*
D03*
Y892538D02*
D03*
Y917937D02*
D03*
Y943337D02*
D03*
Y968737D02*
D03*
D28*
X914400Y924560D02*
D03*
D29*
X1007110Y1040130D02*
D03*
X1032510D02*
D03*
Y963930D02*
D03*
D30*
X1007110D02*
D03*
D31*
X812337Y935990D02*
D03*
X763070D02*
D03*
D32*
X787337D02*
D03*
X738070D02*
D03*
D33*
X401320Y994137D02*
D03*
D43*
X875030Y1027430D02*
D03*
X900430Y1002030D02*
D03*
D44*
X875030Y976630D02*
D03*
D45*
X615950Y814000D02*
D03*
Y788000D02*
D03*
X674370Y814000D02*
D03*
Y788000D02*
D03*
X557530Y814000D02*
D03*
Y788000D02*
D03*
D46*
X615950Y762000D02*
D03*
X674370D02*
D03*
X557530D02*
D03*
D47*
X568960Y466090D02*
D03*
Y478790D02*
D03*
Y491490D02*
D03*
Y374650D02*
D03*
Y387350D02*
D03*
Y400050D02*
D03*
X464820Y374650D02*
D03*
Y387350D02*
D03*
Y400050D02*
D03*
Y466217D02*
D03*
Y478917D02*
D03*
Y491617D02*
D03*
Y557784D02*
D03*
Y570484D02*
D03*
Y583184D02*
D03*
X571500Y557784D02*
D03*
Y570484D02*
D03*
Y583184D02*
D03*
X680720Y466090D02*
D03*
Y478790D02*
D03*
Y491490D02*
D03*
Y557530D02*
D03*
Y570230D02*
D03*
Y582930D02*
D03*
Y374650D02*
D03*
Y387350D02*
D03*
Y400050D02*
D03*
D48*
X568960Y504190D02*
D03*
Y412750D02*
D03*
X464820D02*
D03*
Y504317D02*
D03*
Y595884D02*
D03*
X571500D02*
D03*
X680720Y504190D02*
D03*
Y595630D02*
D03*
Y412750D02*
D03*
D49*
X788487Y985520D02*
D03*
D50*
X739687D02*
D03*
D51*
X600272Y1085210D02*
D03*
D52*
X625672D02*
D03*
X651072D02*
D03*
X676472D02*
D03*
X701872D02*
D03*
X727272D02*
D03*
X752673D02*
D03*
X778073D02*
D03*
X803473D02*
D03*
X828873D02*
D03*
X854273D02*
D03*
X879672D02*
D03*
X905072D02*
D03*
X930472D02*
D03*
Y1164590D02*
D03*
X905072D02*
D03*
X879672D02*
D03*
X854273D02*
D03*
X828873D02*
D03*
X803473D02*
D03*
X778073D02*
D03*
X752673D02*
D03*
X727272D02*
D03*
X701872D02*
D03*
X676472D02*
D03*
X651072D02*
D03*
X625672D02*
D03*
X600272D02*
D03*
D53*
X523240Y688340D02*
D03*
X573100Y853440D02*
D03*
X447040Y783590D02*
D03*
X427990Y786130D02*
D03*
X488514Y1020246D02*
D03*
X553720Y980440D02*
D03*
X539750Y864870D02*
D03*
X650240Y1045210D02*
D03*
X511810Y1028700D02*
D03*
X462280Y1035050D02*
D03*
X624840Y1028700D02*
D03*
%TF.MD5,98c6f02b785936342714a73fa26c083a*%
M02*
