%TF.GenerationSoftware,Altium Limited,Altium Designer,24.6.1 (21)*%
G04 Layer_Color=0*
%FSLAX44Y44*%
%MOMM*%
%TF.SameCoordinates,BF409B1A-1CF9-43DC-8BE1-D3214C2D7C54*%
%TF.FilePolarity,Positive*%
%TF.FileFunction,Plated,1,2,PTH,Drill*%
%TF.Part,Single*%
G01*
G75*
%TA.AperFunction,ComponentDrill*%
%ADD57C,1.0000*%
%ADD58C,0.8500*%
%ADD59C,0.8890*%
%ADD60C,0.9000*%
%ADD61C,1.0200*%
%ADD62C,0.7900*%
%ADD63C,0.7000*%
%ADD64C,1.0200*%
%ADD65C,0.7590*%
%TA.AperFunction,ViaDrill,NotFilled*%
%ADD66C,0.7112*%
D57*
X915150Y439780D02*
D03*
X850150D02*
D03*
X915150Y484780D02*
D03*
X850150D02*
D03*
D58*
X875030Y1027430D02*
D03*
X900430Y1002030D02*
D03*
X875030Y976630D02*
D03*
X615950Y814000D02*
D03*
Y788000D02*
D03*
Y762000D02*
D03*
X674370Y814000D02*
D03*
Y788000D02*
D03*
Y762000D02*
D03*
X557530Y814000D02*
D03*
Y788000D02*
D03*
Y762000D02*
D03*
D59*
X568960Y466090D02*
D03*
Y478790D02*
D03*
Y491490D02*
D03*
Y504190D02*
D03*
Y374650D02*
D03*
Y387350D02*
D03*
Y400050D02*
D03*
Y412750D02*
D03*
X464820Y374650D02*
D03*
Y387350D02*
D03*
Y400050D02*
D03*
Y412750D02*
D03*
Y466217D02*
D03*
Y478917D02*
D03*
Y491617D02*
D03*
Y504317D02*
D03*
Y557784D02*
D03*
Y570484D02*
D03*
Y583184D02*
D03*
Y595884D02*
D03*
X571500Y557784D02*
D03*
Y570484D02*
D03*
Y583184D02*
D03*
Y595884D02*
D03*
X680720Y466090D02*
D03*
Y478790D02*
D03*
Y491490D02*
D03*
Y504190D02*
D03*
Y557530D02*
D03*
Y570230D02*
D03*
Y582930D02*
D03*
Y595630D02*
D03*
Y374650D02*
D03*
Y387350D02*
D03*
Y400050D02*
D03*
Y412750D02*
D03*
D60*
X455060Y1111250D02*
D03*
X505060D02*
D03*
D61*
X863600Y924560D02*
D03*
X889000D02*
D03*
X914400D02*
D03*
D62*
X1007110Y1040130D02*
D03*
X1032510D02*
D03*
Y963930D02*
D03*
X1007110D02*
D03*
D63*
X788487Y985520D02*
D03*
X739687D02*
D03*
X787337Y935990D02*
D03*
X812337D02*
D03*
X738070D02*
D03*
X763070D02*
D03*
D64*
X401320Y867138D02*
D03*
Y892538D02*
D03*
Y917937D02*
D03*
Y943337D02*
D03*
Y968737D02*
D03*
Y994137D02*
D03*
D65*
X600272Y1085210D02*
D03*
X625672D02*
D03*
X651072D02*
D03*
X676472D02*
D03*
X701872D02*
D03*
X727272D02*
D03*
X752673D02*
D03*
X778073D02*
D03*
X803473D02*
D03*
X828873D02*
D03*
X854273D02*
D03*
X879672D02*
D03*
X905072D02*
D03*
X930472D02*
D03*
Y1164590D02*
D03*
X905072D02*
D03*
X879672D02*
D03*
X854273D02*
D03*
X828873D02*
D03*
X803473D02*
D03*
X778073D02*
D03*
X752673D02*
D03*
X727272D02*
D03*
X701872D02*
D03*
X676472D02*
D03*
X651072D02*
D03*
X625672D02*
D03*
X600272D02*
D03*
D66*
X523240Y688340D02*
D03*
X573100Y853440D02*
D03*
X447040Y783590D02*
D03*
X427990Y786130D02*
D03*
X488514Y1020246D02*
D03*
X553720Y980440D02*
D03*
X539750Y864870D02*
D03*
X650240Y1045210D02*
D03*
X511810Y1028700D02*
D03*
X462280Y1035050D02*
D03*
X624840Y1028700D02*
D03*
%TF.MD5,42d1861b0da7a44478808f3aa80539ff*%
M02*
