%TF.GenerationSoftware,Altium Limited,Altium Designer,24.6.1 (21)*%
G04 Layer_Color=0*
%FSLAX44Y44*%
%MOMM*%
%TF.SameCoordinates,BF409B1A-1CF9-43DC-8BE1-D3214C2D7C54*%
%TF.FilePolarity,Positive*%
%TF.FileFunction,Other,Top_Component_Center*%
%TF.Part,Single*%
G01*
G75*
%TA.AperFunction,NonConductor*%
%ADD38C,0.1000*%
D38*
X877650Y462280D02*
X887650D01*
X882650Y457280D02*
Y467280D01*
X810260Y439500D02*
Y449500D01*
X805260Y444500D02*
X815260D01*
X844630Y800100D02*
X854630D01*
X849630Y795100D02*
Y805100D01*
X844630Y800100D02*
X854630D01*
X849630Y795100D02*
Y805100D01*
X480060Y1106250D02*
Y1116250D01*
X475060Y1111250D02*
X485060D01*
X889000Y919560D02*
Y929560D01*
X884000Y924560D02*
X894000D01*
X1019810Y997030D02*
Y1007030D01*
X1014810Y1002030D02*
X1024810D01*
X794837Y935990D02*
X804837D01*
X799837Y930990D02*
Y940990D01*
X745570Y935990D02*
X755570D01*
X750570Y930990D02*
Y940990D01*
X396320Y930638D02*
X406320D01*
X401320Y925638D02*
Y935638D01*
%TF.MD5,3b07b51e0cf39fef2fdde1f20358c6e1*%
M02*
