%TF.GenerationSoftware,Altium Limited,Altium Designer,24.6.1 (21)*%
G04 Layer_Color=32768*
%FSLAX44Y44*%
%MOMM*%
%TF.SameCoordinates,BF409B1A-1CF9-43DC-8BE1-D3214C2D7C54*%
%TF.FilePolarity,Positive*%
%TF.FileFunction,Other,Top_Courtyard*%
%TF.Part,Single*%
G01*
G75*
%TA.AperFunction,NonConductor*%
%ADD39C,0.2000*%
D39*
X561060Y1111250D02*
G03*
X399060Y1111250I-81000J0D01*
G01*
D02*
G03*
X561060Y1111250I81000J0D01*
G01*
X841400Y497280D02*
X923900D01*
Y427280D02*
Y497280D01*
X841400Y427280D02*
X923900D01*
X841400D02*
Y497280D01*
X802760Y431000D02*
Y458000D01*
X817760D01*
Y431000D02*
Y458000D01*
X802760Y431000D02*
X817760D01*
X728680Y720100D02*
X994630D01*
Y880100D01*
X728680D02*
X994630D01*
X728680Y720100D02*
Y880100D01*
X929350Y909860D02*
Y939260D01*
X848650D02*
X929350D01*
X848650Y909860D02*
Y939260D01*
Y909860D02*
X929350D01*
X981010Y956480D02*
Y1047580D01*
Y956480D02*
X1058610D01*
Y1047580D01*
X981010D02*
X1058610D01*
X778838Y949990D02*
X820837D01*
Y921990D02*
Y949990D01*
X778838Y921990D02*
X820837D01*
X778838D02*
Y949990D01*
X729570D02*
X771570D01*
Y921990D02*
Y949990D01*
X729570Y921990D02*
X771570D01*
X729570D02*
Y949990D01*
X386820Y1011588D02*
X415820D01*
X386820Y849688D02*
Y1011588D01*
Y849688D02*
X415820D01*
Y1011588D01*
%TF.MD5,6984ddb215f39cc5002c5bfa94a3a776*%
M02*
