%TF.GenerationSoftware,Altium Limited,Altium Designer,24.6.1 (21)*%
G04 Layer_Color=8421504*
%FSLAX44Y44*%
%MOMM*%
%TF.SameCoordinates,BF409B1A-1CF9-43DC-8BE1-D3214C2D7C54*%
%TF.FilePolarity,Positive*%
%TF.FileFunction,Paste,Top*%
%TF.Part,Single*%
G01*
G75*
%TA.AperFunction,SMDPad,CuDef*%
%ADD10R,0.9500X0.9000*%
%ADD11R,0.9000X0.8000*%
%ADD12R,3.0000X3.6000*%
%ADD13R,3.0000X2.6000*%
%ADD14R,0.7000X1.5500*%
D10*
X810260Y470020D02*
D03*
Y485020D02*
D03*
X582930Y911740D02*
D03*
Y896740D02*
D03*
X615950Y911740D02*
D03*
Y896740D02*
D03*
X507716Y911740D02*
D03*
Y896740D02*
D03*
X539959Y911740D02*
D03*
Y896740D02*
D03*
X523838Y911740D02*
D03*
Y896740D02*
D03*
X443230Y911740D02*
D03*
Y896740D02*
D03*
X459352Y911740D02*
D03*
Y896740D02*
D03*
X475473Y911740D02*
D03*
Y896740D02*
D03*
X491595Y911740D02*
D03*
Y896740D02*
D03*
X426720Y711320D02*
D03*
Y726320D02*
D03*
X599440Y911740D02*
D03*
Y896740D02*
D03*
X565150Y994530D02*
D03*
Y1009530D02*
D03*
D11*
X810260Y437000D02*
D03*
Y452000D02*
D03*
D12*
X978630Y800100D02*
D03*
D13*
X764630D02*
D03*
D14*
X585552Y944300D02*
D03*
X598252D02*
D03*
X610952D02*
D03*
X623652D02*
D03*
X636353D02*
D03*
X649053D02*
D03*
X661752D02*
D03*
X674453D02*
D03*
Y998800D02*
D03*
X661752D02*
D03*
X649053D02*
D03*
X636353D02*
D03*
X623652D02*
D03*
X610952D02*
D03*
X598252D02*
D03*
X585552D02*
D03*
X448120Y944300D02*
D03*
X460820D02*
D03*
X473520D02*
D03*
X486219D02*
D03*
X498919D02*
D03*
X511619D02*
D03*
X524319D02*
D03*
X537020D02*
D03*
Y998800D02*
D03*
X524319D02*
D03*
X511619D02*
D03*
X498919D02*
D03*
X486219D02*
D03*
X473520D02*
D03*
X460820D02*
D03*
X448120D02*
D03*
%TF.MD5,87c09e94c39b124a05f8d39d4e71c85c*%
M02*
